<?xml version="1.0" encoding="UTF-8"?>
<svg xmlns="http://www.w3.org/2000/svg" id="Layer_1" viewBox="0 0 1437.0901 217.0734">
  <rect x="466.9587" y="60.1393" width="25.7141" height="152.6368"></rect>
  <polygon points="516.4669 37.6813 516.4669 6.5195 434.8095 37.6813 516.4669 37.6813"></polygon>
  <path d="M399.854,68.1713c-5.7954-4.2823-12.6535-7.3127-20.5745-9.0875-7.9214-1.7779-17.2285-2.6695-27.9111-2.6695-9.1459,0-18.4277.8232-27.8406,2.4724-9.4179,1.646-16.6134,3.1586-21.5922,4.5321v26.2154h1.3528c8.7503-3.53,17.2287-6.2268,25.4397-8.0905,8.2086-1.8606,15.6512-2.79,22.3328-2.79,5.5025,0,10.7786.3708,15.8327,1.1083,5.0542.7374,9.3824,2.1668,12.9909,4.2875,3.7888,2.2196,6.6966,5.2623,8.7275,9.1357,2.0303,3.8759,3.0484,8.7669,3.0484,14.6731v4.015c-14.805.7271-28.662,1.8202-41.562,3.2801-12.905,1.4568-23.9607,4.2369-33.1664,8.3351-9.1182,4.103-16.1302,9.7314-21.0505,16.8823-4.9208,7.1509-7.3773,16.5115-7.3773,28.0812,0,14.1202,4.7368,25.7454,14.2125,34.8556,9.4731,9.1109,21.028,13.6658,34.6585,13.6658,7.3973,0,13.8518-.7069,19.3549-2.1208,5.5072-1.4144,10.3804-3.1663,14.6228-5.2623,3.6084-1.6413,7.3318-3.8485,11.1667-6.6306,3.835-2.7776,6.8783-4.9443,9.1408-6.4895v16.2059h25.7141v-103.6004c0-9.8405-1.4969-18.0872-4.48-24.7406-2.9932-6.6482-7.3368-12.0723-13.0405-16.2637ZM391.6603,175.3952c-6.2988,4.9236-13.1269,9.1357-20.4937,12.6454-7.3721,3.5098-15.5051,5.2618-24.4041,5.2618-10.6978,0-18.649-2.2118-23.8648-6.6307-5.2152-4.424-7.8178-11.004-7.8178-19.7559,0-7.7421,2.2445-13.8271,6.7393-18.2486,4.4949-4.4189,10.3804-7.6789,17.6622-9.7769,6.1073-1.7271,14.4013-3.0453,24.8776-3.9596,10.466-.9112,19.5665-1.598,27.3013-2.0525v42.5169Z"></path>
  <path d="M1157.6133,16.3244v199.8903h266.7686L1157.6133,16.3244ZM1219.6928,188.2415v8.7092h-47.149c0-31.262,37.9278-32.2867,37.9278-51.2475,0-7.1723-5.6412-12.8133-14.3503-12.8133-11.2763,0-14.3501,11.2764-14.3501,11.2764l-8.2027-3.5861s4.6167-16.3995,22.5529-16.3995c13.8381,0,23.5716,9.7337,23.5716,21.5225,0,21.5224-29.2126,24.6021-36.3847,42.5384h36.3847ZM1256.0838,197.9752c-15.8872,0-24.0897-10.7582-24.0897-10.7582l6.6655-6.1535s5.6353,8.2026,17.4242,8.2026c9.7337,0,16.3996-6.6657,16.3996-14.8625,0-8.715-6.6659-15.3749-15.8872-15.3749-10.252,0-14.8626,7.1722-14.8626,7.1722l-6.6599-.5123,2.5613-40.4834h39.4587v8.7091h-31.2618l-1.537,19.9914s5.0229-3.592,13.3258-3.592c13.3256,0,24.0838,10.7642,24.0838,24.0899s-10.246,23.5716-25.6208,23.5716Z"></path>
  <path d="M108.583,66.2372c-6.8302-3.5532-13.3405-6.174-19.5335-7.8609-6.193-1.6891-13.2958-2.5324-21.3051-2.5324-8.8307,0-17.3693,1.8255-25.611,5.4717-8.2414,3.6463-15.4571,8.936-21.6448,15.8625-6.2865,7.1106-11.2699,15.7234-14.9561,25.8436-3.6884,10.1233-5.5326,21.6549-5.5326,34.5986,0,24.8869,5.349,44.3548,16.0466,58.3944,10.698,14.039,25.1547,21.0586,43.3658,21.0586,9.3752,0,18.0727-1.7826,26.087-5.3378,8.0095-3.5501,15.7066-8.5197,23.0837-14.9027v15.9432h25.7168V0h-25.7168v66.2372ZM108.583,175.3797c-6.4598,5.101-13.4211,9.2722-20.8766,12.4991-7.4603,3.2372-14.8271,4.8532-22.1057,4.8532-13.6487,0-23.5651-4.7167-29.7482-14.1404-6.1879-9.4232-9.2793-23.2001-9.2793-41.3302,0-18.3948,4.001-32.6009,12.0079-42.6203,8.0044-10.0168,19.1939-15.0289,33.5701-15.0289,6.4551,0,12.4159.5957,17.8711,1.7748,5.4572,1.1868,11.6449,3.3256,18.5607,6.4212v87.5714Z"></path>
  <path d="M261.1923,60.1393c-8.0923,0-16.0262,1.709-23.8043,5.1232-7.7777,3.4187-16.7569,9.2267-26.9412,17.4226v-22.5458h-25.7162v152.6368h25.7162v-108.3022c6.8231-5.5549,13.9128-10.0825,21.2803-13.5896,7.3668-3.5052,15.0061-5.2572,22.9227-5.2572,4.905,0,9.1557.2043,12.7507.6107,3.5883.4091,7.2941,1.0607,11.1161,1.9646h1.3657v-26.4223c-3.9984-.6335-7.0041-1.0679-9.0046-1.2975-2.0005-.2275-5.2281-.3433-9.6853-.3433Z"></path>
  <path d="M935.8139,55.8439c-9.0046,0-17.7827,1.8684-26.3288,5.6057-8.5411,3.7367-16.8099,8.9308-24.8119,15.5795V0h-25.7194v212.776h25.7194v-114.1198c6.989-5.3782,14.2955-9.8048,21.9298-13.2717,7.6238-3.4643,14.9406-5.1993,21.9298-5.1993,6.8126,0,12.3502.9345,16.6187,2.8055,4.2678,1.871,7.5383,4.7192,9.8058,8.5498,2.1772,3.4694,3.6786,8.2797,4.4996,14.4357.8117,6.1564,1.225,12.7493,1.225,19.774v87.0259h25.7139v-99.1086c0-18.6803-4.3186-32.9899-12.9554-42.9234-8.6368-9.9336-21.1791-14.9001-37.6265-14.9001Z"></path>
  <path d="M1062.1272,16.3244h-25.7141v43.8149h-17.43v21.478h17.43v81.3244c0,18.5288,4.0464,31.9923,12.1439,40.3905,8.0877,8.3982,19.9144,12.5948,35.47,12.5948,4.454,0,9.5187-.4091,15.2127-1.2169,5.6791-.8181,10.9297-1.8534,15.7517-3.1157v-22.8721h-1.3554c-2.0005.8129-5.271,1.8229-9.8159,3.0402-4.5453,1.2168-8.904,1.8281-13.0816,1.8281-7.1806,0-12.5117-.8486-15.9988-2.5402-3.502-1.6921-6.2532-4.3682-8.2539-8.0248-2.1764-3.9338-3.4464-8.1707-3.8142-12.6956-.3629-4.525-.5443-10.8174-.5443-18.8701v-69.8426h52.8641v-21.478h-52.8641V16.3244Z"></path>
  <path d="M777.4022,56.4143c-22.4334,0-40.4885,7.1157-54.1593,21.3446-13.6708,14.2283-20.5036,33.8431-20.5036,58.8288,0,13.4103,1.8141,25.1263,5.4471,35.1612,3.6379,10.0345,8.7628,18.3318,15.4041,24.902,6.5355,6.565,14.3969,11.4689,23.5677,14.7061,9.1706,3.2367,19.259,4.8579,30.244,4.8579,8.6269,0,16.7853-1.1413,24.4597-3.4187,7.6693-2.2729,15.7771-5.4593,24.323-9.555v-28.2654h-1.3653c-1.9149,1.5453-4.5052,3.3734-7.7705,5.505-3.2703,2.1311-6.7619,4.151-10.486,6.0499-4.2682,2.1766-9.0902,3.9442-14.4469,5.3026-5.3566,1.3632-10.6274,2.0401-15.7971,2.0401-14.9005,0-26.4551-4.9442-34.674-14.8323-8.2235-9.8882-12.3301-24.0435-12.3301-42.4533,0-18.9559,4.1975-33.3358,12.6026-43.1354,8.4-9.8002,19.8638-14.6985,34.4015-14.6985,7.9061,0,16.0036,1.6336,24.3182,4.8936,8.3142,3.2673,16.3766,7.9333,24.1822,14.0065h1.3653v-28.5384c-6.9938-3.5501-14.6889-6.5526-23.1036-9.012-8.3901-2.4568-16.9562-3.6892-25.6791-3.6892Z"></path>
  <path d="M603.4555,55.8439c-21.5568,0-38.6645,7.2269-51.3479,21.6751-12.6779,14.4506-19.017,34.1186-19.017,59.0056s6.3391,44.5415,19.017,58.9445c12.6834,14.4025,29.7911,21.6042,51.3479,21.6042,21.3601,0,38.3973-7.2017,51.1311-21.6042,12.7233-14.403,19.0877-34.053,19.0877-58.9445s-6.3645-44.555-19.0877-59.0056c-12.7337-14.4482-29.771-21.6751-51.1311-21.6751ZM635.4734,180.0762c-7.7501,9.7774-18.4277,14.6556-32.0179,14.6556-13.7869,0-24.5201-4.9237-32.2348-14.7868-7.7044-9.8575-11.5593-24.331-11.5593-43.4203,0-19.7209,3.8297-34.3737,11.4839-43.9639,7.6641-9.5825,18.4324-14.3803,32.3102-14.3803,13.6811,0,24.3787,4.7978,32.0933,14.3803,7.6945,9.5902,11.5548,24.243,11.5548,43.9639,0,19.2657-3.8753,33.7852-11.6302,43.5516Z"></path>
  <path d="M1320.3449,49.7619v5.7001h-25.5089c0-17.1002,19.538-17.6419,19.538-26.8692,0-3.5272-2.4378-5.9709-6.7835-5.9709-5.7001,0-7.3253,5.1583-7.3253,5.1583l-4.8874-2.1729s2.1729-8.6855,12.2127-8.6855c7.602,0,12.7545,5.1583,12.7545,11.671,0,11.1292-14.1088,12.7545-18.4545,21.1691h18.4545Z"></path>
  <path d="M1331.4683,36.4657c0-12.4895,7.0544-19.5439,15.7399-19.5439s15.7458,7.0544,15.7458,19.5439-7.0603,19.538-15.7458,19.538-15.7399-7.0544-15.7399-19.538ZM1347.2082,22.351c-5.1524,0-9.769,4.6107-9.769,14.1147,0,9.4981,4.6166,14.1147,9.769,14.1147,5.1583,0,9.7749-4.6166,9.7749-14.1147,0-9.504-4.6166-14.1147-9.7749-14.1147Z"></path>
  <path d="M1374.0656,36.4657c0-12.4895,7.0544-19.5439,15.7399-19.5439s15.7458,7.0544,15.7458,19.5439-7.0603,19.538-15.7458,19.538-15.7399-7.0544-15.7399-19.538ZM1389.8055,22.351c-5.1524,0-9.769,4.6107-9.769,14.1147,0,9.4981,4.6166,14.1147,9.769,14.1147,5.1583,0,9.7749-4.6166,9.7749-14.1147,0-9.504-4.6166-14.1147-9.7749-14.1147Z"></path>
  <path d="M1422.3689,26.4199h-6.7835v-3.7981c4.8816-.5417,6.7835-2.4437,8.1379-5.1583h4.6166v37.9984h-5.9709v-29.042Z"></path>
  <path d="M1319.4322,101.5453v5.7001h-25.5089c0-17.1002,19.538-17.6419,19.538-26.8692,0-3.5272-2.4378-5.9709-6.7835-5.9709-5.7001,0-7.3253,5.1583-7.3253,5.1583l-4.8874-2.1729s2.1729-8.6855,12.2127-8.6855c7.602,0,12.7545,5.1583,12.7545,11.671,0,11.1292-14.1088,12.7545-18.4545,21.1691h18.4545Z"></path>
  <path d="M1331.1503,88.2491c0-12.4895,7.0544-19.5439,15.7399-19.5439s15.7458,7.0544,15.7458,19.5439-7.0603,19.538-15.7458,19.538-15.7399-7.0544-15.7399-19.538ZM1346.8902,74.1344c-5.1524,0-9.769,4.6107-9.769,14.1147,0,9.4981,4.6166,14.1147,9.769,14.1147,5.1583,0,9.7749-4.6166,9.7749-14.1147,0-9.504-4.6166-14.1147-9.7749-14.1147Z"></path>
  <path d="M1398.7737,101.5453v5.7001h-25.5089c0-17.1002,19.538-17.6419,19.538-26.8692,0-3.5272-2.4378-5.9709-6.7835-5.9709-5.7001,0-7.3253,5.1583-7.3253,5.1583l-4.8874-2.1729s2.1729-8.6855,12.2127-8.6855c7.602,0,12.7545,5.1583,12.7545,11.671,0,11.1292-14.1088,12.7545-18.4545,21.1691h18.4545Z"></path>
  <path d="M1423.7939,69.2469h6.5127l-8.6855,13.3021s.8126-.2709,2.4437-.2709c7.3253,0,13.0253,5.7001,13.0253,12.7545s-5.7001,12.7545-13.5671,12.7545c-7.8729,0-13.573-5.7001-13.573-12.7545,0-4.3398,2.7146-8.4147,2.7146-8.4147l11.1292-17.371ZM1423.523,102.3638c4.3398,0,7.5962-3.2622,7.5962-7.3312s-3.2563-7.3312-7.5962-7.3312c-4.3457,0-7.602,3.2622-7.602,7.3312s3.2563,7.3312,7.602,7.3312Z"></path>
</svg>
