<?xml version="1.0" encoding="UTF-8"?> <svg xmlns="http://www.w3.org/2000/svg" xmlns:xlink="http://www.w3.org/1999/xlink" xmlns:svg="http://www.w3.org/2000/svg" xmlns:rdf="http://www.w3.org/1999/02/22-rdf-syntax-ns#" xmlns:dc="http://purl.org/dc/elements/1.1/" xmlns:cc="http://creativecommons.org/ns#" id="SVG" version="1.1" viewBox="0 0 311 150"><defs><style> .st0 { clip-path: url(#clippath-1); } .st1 { clip-path: url(#clippath-2); } .st2 { fill: #25245c; } .st3 { clip-path: url(#clippath); } .st4 { fill: #62c5ba; } </style><clipPath id="clippath"><path class="st4" d="M56,2s-6.3,7-6.2,14.7c0,7.7,4,14.3,12.6,19.8,9.3,5.9,18.1,13.3,17.2,22.6,0,0,6.4-14.8-3.6-27.4-10-12.6-21-14.7-20.1-29.5Z"></path></clipPath><clipPath id="clippath-1"><path class="st4" d="M39.1,10.9H2.7s-2.4,37.4,1.6,53.3c2.2,8.5,8.1,17.9,15.3,24.3,6.8,6,17,10.3,24.3,10.3,0,0-8.4-2.5-17.8-12.5-6.4-6.8-11.5-17.7-12.7-28-2.1-18.2-.6-37.3-.6-37.3h17.1l9.1-10.1Z"></path></clipPath><clipPath id="clippath-2"><path class="st4" d="M49.4,75.4c-1.6-.3-1.2.9-1,1.3.6,1.1,1.2,2.1,1.5,2.8,2.8,6.8,1,9.4,1,9.4,0,0-2,.8-6-4.9-7.6-10.5-9.7-20.3-10.3-24.5-.8,1.2-2.7,4.3-3.4,8.3-1.1,6.3,1.3,13.8,1.3,13.8-21.6-25.1,1.4-47.8,1.4-47.8-1,8.2,1.5,14.7,9.5,22.1,6.4,5.9,21.3,11.4,22.8,23.7.3,2.3.2,4.3-.2,6.1,3.3-4.1,5-9,4.3-13.6-.8-5.9-6-11.3-13.2-15.7-9.2-5.5-15.7-12.2-17.9-19.9-3-10.3,5-18.8,5-18.8-.8,8.1,2.6,19.2,16.4,26.4,13.4,7,18.4,17.3,18.4,26.2-.9,25.4-28.5,27.5-28.5,27.5,6.7-3.9,12.4-17.6-.9-22.4,0,0-.2,0-.3,0Z"></path></clipPath></defs><g><g id="g14"><g id="g16"><g><path class="st4" d="M56,2s-6.3,7-6.2,14.7c0,7.7,4,14.3,12.6,19.8,9.3,5.9,18.1,13.3,17.2,22.6,0,0,6.4-14.8-3.6-27.4-10-12.6-21-14.7-20.1-29.5Z"></path><g class="st3"><g id="g22"><path id="path36" class="st4" d="M79.6,59.1v-2.5h-.1v-1.1h-.1v-.7h-.1v-.5h-.1v-.5h-.1v-.4h-.1v-.4h-.1v-.3h-.1v-.4h-.1v-.3h-.1v-.3h-.1v-.3h-.1v-.4h-.1v-.3h-.1c0-.1-.1-.1-.1-.1v-.3h-.1v-.3h-.1v-.3h-.1c0-.1-.1-.1-.1-.1v-.3h-.1v-.3h-.1c0-.1-.1-.1-.1-.1h0c0-.1-.1-.1-.1-.1v-.3h-.1c0-.1-.1-.1-.1-.1v-.3h-.1c0-.1-.1-.1-.1-.1v-.3h-.1c0-.1-.1-.1-.1-.1h0c0-.1-.1-.1-.1-.1h0c0-.1-.1-.1-.1-.1h0c0-.1-.1-.1-.1-.1v-.3h-.1c0-.1-.1-.1-.1-.1h0c0-.1-.1-.1-.1-.1h0c0-.1-.1-.1-.1-.1v-.3h-.1c0-.1-.1-.1-.1-.1h0c0-.1-.1-.1-.1-.1h0c0-.1-.1-.1-.1-.1h0c0-.1-.1-.1-.1-.1h0c0-.1-.1-.1-.1-.1h0c0-.1-.1-.1-.1-.1h0c0-.1-.1-.1-.1-.1h0c0-.1-.1-.1-.1-.1h0c0-.1-.1-.1-.1-.1h0c0-.1-.1-.1-.1-.1h0c0-.1-.1-.1-.1-.1h0c0-.1-.1-.1-.1-.1h0c0-.1-.1-.1-.1-.1h0c0-.1-.1-.1-.1-.1h0c0-.1-.1-.1-.1-.1h0c0-.1-.1-.1-.1-.1h0c0-.1-.1-.1-.1-.1h0c0-.1-.1-.1-.1-.1h0c0-.1-.1-.1-.1-.1h0c0-.1-.1-.1-.1-.1h0c0-.1-.1-.1-.1-.1h0c0-.1-.1-.1-.1-.1h0c0-.1-.1-.1-.1-.1h0c0-.1-.1-.1-.1-.1h0c0-.1-.3-.1-.3-.1h0c0-.1-.1-.1-.1-.1h0c0-.1-.1-.1-.1-.1h0c0-.1-.1-.1-.1-.1h0c0-.1-.1-.1-.1-.1h0c0-.1-.1-.1-.1-.1h0c0-.1-.3-.1-.3-.1h0c0-.1-.1-.1-.1-.1h0c0-.1-.1-.1-.1-.1h0c0-.1-.1-.1-.1-.1h0c0-.1-.1-.1-.1-.1h0c0-.1-.3-.1-.3-.1h0c0-.1-.1-.1-.1-.1h0c0-.1-.1-.1-.1-.1h0c0-.1-.1-.1-.1-.1h0c0-.1-.3-.1-.3-.1h0c0-.1-.1-.1-.1-.1h0c0-.1-.1-.1-.1-.1h0c0-.1-.3-.1-.3-.1h0c0-.1-.1-.1-.1-.1h0c0-.1-.1-.1-.1-.1h0c0-.1-.3-.1-.3-.1h0c0-.1-.1-.1-.1-.1h0c0-.1-.1-.1-.1-.1h0c0-.1-.3-.1-.3-.1h0c0-.1-.1-.1-.1-.1h0c0-.1-.1-.1-.1-.1h0c0-.1-.3-.1-.3-.1h0c0-.1-.1-.1-.1-.1h0c0-.1-.3-.1-.3-.1h0c0-.1-.1-.1-.1-.1h0c0-.1-.1-.1-.1-.1h0c0-.1-.3-.1-.3-.1h0c0-.1-.1-.1-.1-.1h0c0-.1-.3-.1-.3-.1h0c0-.1-.1-.1-.1-.1h0c0-.1-.3-.1-.3-.1h0c0-.1-.1-.1-.1-.1h0c0-.1-.3-.1-.3-.1h0c0-.1-.1-.1-.1-.1h0c0-.1-.3-.1-.3-.1h0c0-.1-.1-.1-.1-.1h0c0-.1-.3-.1-.3-.1h0c0-.1-.1-.1-.1-.1h0c0-.1-.3-.1-.3-.1h0c0-.1-.1-.1-.1-.1h0c0-.1-.3-.1-.3-.1h0c0-.1-.1-.1-.1-.1h0c0-.1-.3-.1-.3-.1h0c0-.1-.1-.1-.1-.1h0c0-.1-.3-.1-.3-.1h0c0-.1-.1-.1-.1-.1h0c0-.1-.3-.1-.3-.1h0c0-.1-.3-.1-.3-.1h0c0-.1-.1-.1-.1-.1h0c0-.1-.1-.1-.1-.1h0c0-.1-.3-.1-.3-.1h0c0-.1-.1-.1-.1-.1h0c0-.1-.1-.1-.1-.1h0c0-.1-.3-.1-.3-.1h0c0-.1-.1-.1-.1-.1h0c0-.1-.3-.1-.3-.1h0c0-.1-.1-.1-.1-.1h0c0-.1-.1-.1-.1-.1h0c0-.1-.3-.1-.3-.1h0c0-.1-.1-.1-.1-.1h0c0-.1-.1-.1-.1-.1h0c0-.1-.3-.1-.3-.1h0c0-.1-.1-.1-.1-.1h0c0-.1-.1-.1-.1-.1h0c0-.1-.1-.1-.1-.1h0c0-.1-.1-.1-.1-.1h0c0-.1-.1-.1-.1-.1h0c0-.1-.3-.1-.3-.1h0c0-.1-.1-.1-.1-.1h0c0-.1-.1-.1-.1-.1h0c0-.1-.1-.1-.1-.1h0c0-.1-.1-.1-.1-.1h0c0-.1-.1-.1-.1-.1h0c0-.1-.3-.1-.3-.1h0c0-.1-.1-.1-.1-.1h0c0-.1-.1-.1-.1-.1h0c0-.1-.1-.1-.1-.1h0c0-.1-.1-.1-.1-.1h0c0-.1-.1-.1-.1-.1h0c0-.1-.1-.1-.1-.1h0c0-.1-.1-.1-.1-.1h0c0-.1-.1-.1-.1-.1h0c0-.1-.1-.1-.1-.1v-.3h-.1c0-.1-.1-.1-.1-.1h0c0-.1-.1-.1-.1-.1h0c0-.1-.1-.1-.1-.1h0c0-.1-.1-.1-.1-.1h0c0-.1-.1-.1-.1-.1h0c0-.1-.1-.1-.1-.1h0c0-.1-.1-.1-.1-.1h0c0-.1-.1-.1-.1-.1h0c0-.1-.1-.1-.1-.1h0c0-.1-.1-.1-.1-.1v-.3h-.1c0-.1-.1-.1-.1-.1v-.3h-.1c0-.1-.1-.1-.1-.1h0c0-.1-.1-.1-.1-.1v-.3h-.1c0-.1-.1-.1-.1-.1h0c0-.1-.1-.1-.1-.1v-.3h-.1c0-.1-.1-.1-.1-.1v-.3h-.1c0-.1-.1-.1-.1-.1v-.3h-.1v-.3h-.1c0-.1-.1-.1-.1-.1v-.3h-.1v-.3h-.1v-.3h-.1v-.3h-.1v-.3h-.1v-.3h-.1c0-.1-.1-.1-.1-.1v-.4h-.1v-.3h-.1v-.4h-.1v-.4h-.1v-.3h-.1v-.4h-.1v-.4h-.1v-.4h-.1v-.7h-.1v-.5h-.1v-.7h-.1v-.7h-.1v-1.1h-.1v-3.9h.1v-.9h.1v-.7h.1v-.7h.1v-.4h.1v-.5h.1v-.4h.1v-.4h.1v-.3h.1v-.4h.1v-.4h.1v-.3h.1v-.3h.1v-.4h.1v-.3h.1v-.3h.1v-.3h.1v-.3h.1v-.3h.1v-.3h.1v-.3h.1c0-.1.1-.1.1-.1v-.3h.1v-.3h.1c0-.1.1-.1.1-.1v-.3h.1v-.3h.1c0-.1.1-.1.1-.1v-.3h.1c0-.1.1-.1.1-.1v-.3h.1v-.3h.1c0-.1.1-.1.1-.1h0c0-.1.1-.1.1-.1v-.3h.1c0-.1.1-.1.1-.1v-.3h.1c0-.1.1-.1.1-.1h0c0-.1.1-.1.1-.1v-.3h.1c0-.1.1-.1.1-.1h0c0-.1.1-.1.1-.1h0c0-.1.1-.1.1-.1v-.3h.1c0-.1.1-.1.1-.1h0c0-.1.3-.1.3-.1v3.5h.1v1.3h.1v.7h.1v.7h.1v.5h.1v.5h.1v.4h.1v.4h.1v.4h.1v.3h.1v.4h.1v.3h.1v.3h.1v.3h.1v.3h.1v.3h.1v.3h.1v.3h.1c0,.1.1.1.1.1v.3h.1c0,.1.1.1.1.1v.3h.1c0,.1.1.1.1.1v.3h.1v.3h.1c0,.1.1.1.1.1h0c0,.1.1.1.1.1h0c0,.1.1.1.1.1v.3h.1c0,.1.1.1.1.1h0c0,.1.1.1.1.1h0c0,.1.1.1.1.1v.3h.1c0,.1.1.1.1.1h0c0,.1.1.1.1.1h0c0,.1.1.1.1.1h0c0,.1.1.1.1.1h0c0,.1.1.1.1.1v.3h.1c0,.1.1.1.1.1h0c0,.1.1.1.1.1h0c0,.1.1.1.1.1h0c0,.1.1.1.1.1h0c0,.1.1.1.1.1h0c0,.1.1.1.1.1h0c0,.1.1.1.1.1h0c0,.1.1.1.1.1h0c0,.1.1.1.1.1h0c0,.1.1.1.1.1h0c0,.1.1.1.1.1h0c0,.1.1.1.1.1h0c0,.1.1.1.1.1h0c0,.1.1.1.1.1h0c0,.1.1.1.1.1h0c0,.1.1.1.1.1h0c0,.1.1.1.1.1h0c0,.1.1.1.1.1h0c0,.1.3.1.3.1h0c0,.1.1.1.1.1h0c0,.1.1.1.1.1h0c0,.1.1.1.1.1h0c0,.1.1.1.1.1h0c0,.1.1.1.1.1h0c0,.1.1.1.1.1h0c0,.1.1.1.1.1h0c0,.1.1.1.1.1h0c0,.1.1.1.1.1h0c0,.1.3.1.3.1h0c0,.1.1.1.1.1h0c0,.1.1.1.1.1h0c0,.1.1.1.1.1h0c0,.1.1.1.1.1h0c0,.1.1.1.1.1h0c0,.1.1.1.1.1h0c0,.1.1.1.1.1h0c0,.1.3.1.3.1h0c0,.1.1.1.1.1h0c0,.1.1.1.1.1h0c0,.1.1.1.1.1h0c0,.1.1.1.1.1h0c0,.1.1.1.1.1h0c0,.1.1.1.1.1h0c0,.1.1.1.1.1h0c0,.1.1.1.1.1h0c0,.1.3.1.3.1h0c0,.1.1.1.1.1h0c0,.1.1.1.1.1h0c0,.1.1.1.1.1h0c0,.1.1.1.1.1h0c0,.1.1.1.1.1h0c0,.1.1.1.1.1h0c0,.1.1.1.1.1h0c0,.1.1.1.1.1h0c0,.1.1.1.1.1h0c0,.1.3.1.3.1h0c0,.1.1.1.1.1h0c0,.1.1.1.1.1h0c0,.1.1.1.1.1h0c0,.1.1.1.1.1h0c0,.1.1.1.1.1h0c0,.1.1.1.1.1h0c0,.1.1.1.1.1h0c0,.1.1.1.1.1h0c0,.1.1.1.1.1h0c0,.1.1.1.1.1h0c0,.1.1.1.1.1h0c0,.1.1.1.1.1h0c0,.1.1.1.1.1h0c0,.1.1.1.1.1h0c0,.1.1.1.1.1h0c0,.1.1.1.1.1h0c0,.1.1.1.1.1h0c0,.1.1.1.1.1h0c0,.1.1.1.1.1h0c0,.1.1.1.1.1h0c0,.1.1.1.1.1h0c0,.1.1.1.1.1h0c0,.1.1.1.1.1h0c0,.1.1.1.1.1h0c0,.1.1.1.1.1h0c0,.1.1.1.1.1h0c0,.1.1.1.1.1h0c0,.1.1.1.1.1h0c0,.1.1.1.1.1h0c0,.1.1.1.1.1h0c0,.1.1.1.1.1h0c0,.1.1.1.1.1h0c0,.1.1.1.1.1h0c0,.1.1.1.1.1v.3h.1c0,.1.1.1.1.1h0c0,.1.1.1.1.1h0c0,.1.1.1.1.1h0c0,.1.1.1.1.1h0c0,.1.1.1.1.1h0c0,.1.1.1.1.1v.3h.1c0,.1.1.1.1.1h0c0,.1.1.1.1.1h0c0,.1.1.1.1.1h0c0,.1.1.1.1.1h0c0,.1.1.1.1.1v.3h.1c0,.1.1.1.1.1h0c0,.1.1.1.1.1h0c0,.1.1.1.1.1v.3h.1c0,.1.1.1.1.1h0c0,.1.1.1.1.1h0c0,.1.1.1.1.1v.3h.1c0,.1.1.1.1.1v.3h.1c0,.1.1.1.1.1v.3h.1c0,.1.1.1.1.1v.3h.1c0,.1.1.1.1.1v.3h.1c0,.1.1.1.1.1v.3h.1v.3h.1v.3h.1v.3h.1c0,.1.1.1.1.1v.3h.1v.3h.1v.3h.1v.3h.1v.3h.1v.3h.1v.4h.1v.3h.1v.3h.1v.4h.1v.3h.1v.4h.1v.4h.1v.4h.1v.5h.1v.4h.1v.4h.1v.5h.1v.7h.1v.7h.1v.8h.1v1.1h.1v1.6h.1v3.5h-.1v1.5h-.1v1.2h-.1v.8h-.1v.8h-.1v.5h-.1v.7h-.1v.5h-.1v.5h-.1v.4h-.1v.5h-.1v.4h-.1v.4h-.1v.4h-.1v.3h-.1v.4"></path></g></g></g></g></g><g id="g38"><g><path class="st4" d="M39.1,10.9H2.7s-2.4,37.4,1.6,53.3c2.2,8.5,8.1,17.9,15.3,24.3,6.8,6,17,10.3,24.3,10.3,0,0-8.4-2.5-17.8-12.5-6.4-6.8-11.5-17.7-12.7-28-2.1-18.2-.6-37.3-.6-37.3h17.1l9.1-10.1Z"></path><g class="st0"><g id="g40"><path id="path54" class="st4" d="M39.1,10.9H2.7s-2.4,37.4,1.6,53.3c2.2,8.5,8.1,17.9,15.3,24.3,6.8,6,17,10.3,24.3,10.3,0,0-8.4-2.5-17.8-12.5-6.4-6.8-11.5-17.7-12.7-28-2.1-18.2-.6-37.3-.6-37.3h17.1l9.1-10.1"></path></g></g></g></g><g id="g56"><g><path class="st4" d="M49.4,75.4c-1.6-.3-1.2.9-1,1.3.6,1.1,1.2,2.1,1.5,2.8,2.8,6.8,1,9.4,1,9.4,0,0-2,.8-6-4.9-7.6-10.5-9.7-20.3-10.3-24.5-.8,1.2-2.7,4.3-3.4,8.3-1.1,6.3,1.3,13.8,1.3,13.8-21.6-25.1,1.4-47.8,1.4-47.8-1,8.2,1.5,14.7,9.5,22.1,6.4,5.9,21.3,11.4,22.8,23.7.3,2.3.2,4.3-.2,6.1,3.3-4.1,5-9,4.3-13.6-.8-5.9-6-11.3-13.2-15.7-9.2-5.5-15.7-12.2-17.9-19.9-3-10.3,5-18.8,5-18.8-.8,8.1,2.6,19.2,16.4,26.4,13.4,7,18.4,17.3,18.4,26.2-.9,25.4-28.5,27.5-28.5,27.5,6.7-3.9,12.4-17.6-.9-22.4,0,0-.2,0-.3,0Z"></path><g class="st1"><g id="g58"><path id="path72" class="st4" d="M49.4,75.4c-1.6-.3-1.2.9-1,1.3.6,1.1,1.2,2.1,1.5,2.8,2.8,6.8,1,9.4,1,9.4,0,0-2,.8-6-4.9-7.6-10.5-9.7-20.3-10.3-24.5-.8,1.2-2.7,4.3-3.4,8.3-1.1,6.3,1.3,13.8,1.3,13.8-21.6-25.1,1.4-47.8,1.4-47.8-1,8.2,1.5,14.7,9.5,22.1,6.4,5.9,21.3,11.4,22.7,23.7.3,2.3.2,4.3-.2,6.1,3.3-4.1,5-9,4.3-13.6-.8-5.9-6-11.3-13.2-15.7-9.2-5.5-15.7-12.2-17.9-19.9-3-10.3,5-18.8,5-18.8-.8,8.1,2.6,19.2,16.4,26.4,13.4,7,18.4,17.3,18.4,26.2-.9,25.4-28.5,27.5-28.5,27.5,6.7-3.9,12.4-17.6-.9-22.4,0,0-.2,0-.3,0"></path></g></g></g></g></g><g><path id="path74" class="st2" d="M114.6,10.8v85.3h-17.1V17.5c0-3.7,3-6.7,6.7-6.7h10.3"></path><path id="path76" class="st2" d="M146.3,10.8v85.3h-17.1V17.5c0-3.7,3-6.7,6.7-6.7h10.3"></path><path id="path78" class="st2" d="M158.7,53.4c0-25.9,18.9-44.1,46.6-44.1,10.5.2,20.7,3.7,26.1,7.1l-3,6.3c-1.5,3.1-5,4.6-8.2,3.5-3.8-1.3-9.2-2.6-15.2-2.6-16.7,0-28.1,11.9-28.1,29.8s11.4,29.8,28.1,29.8,20.7-4.9,20.7-4.9l5.7,12.1c-5.4,3.4-15.6,6.8-26.1,7.1-27.8,0-46.6-18.1-46.6-44.1"></path><path id="path80" class="st2" d="M261,51.4h17.1c7.9,0,12.5-5.8,12.5-13.4s-7.3-12.9-14-12.9h-15.6v26.3ZM281.4,10.8c14.4,0,26.2,12.1,26.2,27.2s-11.8,27.6-25.8,27.6h-20.8v30.4h-17.1V17.5c0-3.7,3-6.7,6.7-6.7h30.8"></path></g><g><path id="path82" class="st2" d="M95.9,134.6c0-8.8,6.3-13.3,14.6-13.3,3.4.1,6.4,1.2,7.8,2.3l-2.1,4.5s-2.6-1.5-6-1.5-7.2,3.4-7.2,8,2.7,8,7.2,8,6-1.4,6-1.4l2.1,4.5c-1.4,1-4.5,2.1-7.8,2.2-8.3,0-14.6-4.5-14.6-13.3"></path><path id="path84" class="st2" d="M133.7,142.6c4.1,0,6.8-3.2,6.8-8s-2.7-8.1-6.8-8.1-6.9,3.3-6.9,8.1,2.8,8,6.9,8ZM133.7,147.9c-8.6,0-13.9-5.6-13.9-13.3s5.3-13.3,13.9-13.3,13.9,5.6,13.9,13.3-5.3,13.3-13.9,13.3"></path><path id="path86" class="st2" d="M158.2,121.7v20.5h10.6v5.2h-17.1v-25.7h6.5"></path><path id="path88" class="st2" d="M178.7,121.7v20.5h10.6v5.2h-17.1v-25.7h6.5"></path><path id="path90" class="st2" d="M211.4,121.7v5.2h-12.2v5.3h10.6v5.2h-10.6v4.7h12.4v5.2h-19v-25.7h18.8"></path><path id="path92" class="st2" d="M237.9,123.6l-2.2,4.5c-.6-.3-3.1-1.5-6.9-1.5s-7.1,3.5-7.1,8.1,1.9,8,7.4,8,3.5-.7,4.3-1.1v-4h-6.6v-4.6h12v10.9c-2.4,2.7-6.6,4.1-9.7,4.1-9,0-14.5-4.9-14.5-13.3s6-13.3,14.7-13.3,6.1.8,8.6,2.4"></path><path id="path94" class="st2" d="M262,121.7v5.2h-12.2v5.3h10.6v5.2h-10.6v4.7h12.4v5.2h-19v-25.7h18.8"></path></g></svg> 