<?xml version="1.0" encoding="utf-8"?>
<!-- Generator: Adobe Illustrator 19.0.0, SVG Export Plug-In . SVG Version: 6.00 Build 0)  -->
<svg version="1.1" id="Layer_1" xmlns="http://www.w3.org/2000/svg" xmlns:xlink="http://www.w3.org/1999/xlink" x="0px" y="0px"
	 viewBox="-1910 985 178 32" style="enable-background:new -1910 985 178 32;" xml:space="preserve">
<style type="text/css">
	.st0{fill:#070707;}
	.st1{fill:none;}
	.st2{clip-path:url(#SVGID_2_);}
</style>
<g id="Group-15">
	<path id="Fill-1" d="M-1830,1011h-5.4v-11l-5.9,11h-3.4l-5.9-11v11h-5.4v-22h5.4l7.6,13.6l7.6-13.6h5.4V1011z"/>
	<g id="Group-14">
		<path id="Fill-2" d="M-1816.8,1004.3l4.8,1.1c-0.8,4-4.3,6.5-8.4,6.5c-4.9,0-9-3.6-9-8.8c0-5.3,4.1-8.8,9-8.8c4,0,7.5,2.5,8.4,6.4
			l-4.9,1.2c-0.5-2-1.8-3-3.5-3c-2.4,0-4,1.8-4,4.2c0,2.5,1.6,4.2,4,4.2C-1818.7,1007.2-1817.4,1006.3-1816.8,1004.3"/>
		<path id="Fill-4" class="st0" d="M-1789.2,1011.4h-4.5l-11.1-12.8v12.8h-5.4v-22.2h4.5l11.1,13.2v-13.2h5.4V1011.4z"/>
		<path id="Fill-6" d="M-1770.5,1011.4h-5.2v-1.6c-1.2,1.3-3,2.1-5.1,2.1c-3.8,0-6.4-2.7-6.4-6.9v-10.2h5.2v9.1c0,2,1.1,3.3,2.8,3.3
			c2.1,0,3.4-1.4,3.4-4.6v-7.7h5.2V1011.4z"/>
		<path id="Clip-9" class="st1" d="M-1910,1017h178v-32h-178V1017z"/>
		<g>
			<defs>
				<rect id="SVGID_1_" x="-1910" y="985" width="178" height="32"/>
			</defs>
			<clipPath id="SVGID_2_">
				<use xlink:href="#SVGID_1_"  style="overflow:visible;"/>
			</clipPath>
			<g class="st2">
				<path id="Fill-8" d="M-1768.3,1011.4h5.2v-23.8h-5.2V1011.4z"/>
				<path id="Fill-10" d="M-1750,1010.6c-1.3,0.7-2.6,1.2-4.5,1.2c-4.1,0-6.6-2.2-6.6-6.6V999v-4.2v-4.9h5.2v4.9h3.3v4.2h-3.3v5.8
					c0,1.7,0.8,2.4,2.2,2.4c0.7,0,1.7-0.3,2.4-0.7L-1750,1010.6z"/>
				<path id="Fill-11" d="M-1741.5,1017h-5.7l2.7-6.2l-6.8-16.1h5.6l3.9,9.7l4.2-9.7h5.6L-1741.5,1017z"/>
				<path id="Fill-12" d="M-1898.1,989.3c0.4-0.7,1.3-0.7,1.7,0l5.9,10.3l6.7,11.8h-13.5h-11.8c-0.8,0-1.2-0.8-0.9-1.5l5.9-10.3
					L-1898.1,989.3z"/>
				<path id="Fill-13" d="M-1877.8,985.6c0.4-0.8,1.6-0.8,2,0l6.9,12l6.9,12c0.4,0.8-0.1,1.8-1,1.8h-13.7h-15.7l7.9-13.8
					L-1877.8,985.6z"/>
			</g>
		</g>
	</g>
</g>
</svg>
