<svg xmlns="http://www.w3.org/2000/svg" viewBox="0 0 582.45 662.75"><defs><style>.cls-1{fill:#fff;}.cls-2{fill:#1b4581;}.cls-3{fill:#231f20;}.cls-4{fill:#bf8d2c;}</style></defs><g id="CREST"><path class="cls-1" d="M114.5,452.1l42.94-33.19s39,21.6,38.34,55.88l1,1.82s38.49,29.95,95.21,29,95.76-28,97-30.14c0,0-4.13-32.76,38.41-56.54l42.38,33.36s-14.2,30.21-32.7,43.26l14.7,33.31s-23.23-10.68-26.31-13.49l11,34.51s-23.17-11.22-30.84-28.71c0,0-53.76,31-109.22,30s-104.39-19.77-117.49-30c0,0-14.81,22.43-31.71,28.71l11.66-35.25S144.22,526.39,132.66,528l13.71-32.28S118,466.8,114.5,452.1"></path><path class="cls-1" d="M291.58,472.62S204.64,442,168.51,367.14c-32.81-68-30.44-132.57-30.44-132.57V115.75h307.4V234.57s2.38,64.55-30.43,132.57C378.91,442,292,472.62,292,472.62"></path><path class="cls-2" d="M445.47,115.75H292V252.54H445c.76-11.3.51-18,.51-18Z"></path><path class="cls-2" d="M291,252.54H138.59c1.59,23.87,7.65,68.43,29.92,114.6C202.87,438.39,283.21,469.53,291,472.4Z"></path><path class="cls-2" d="M441.26,115.75H292V252.54H440.61c.89-13.88.65-22.45.65-22.45Z"></path><path class="cls-3" d="M289.23,115.75V457.92c0,4.62-.09,9.25,0,13.87v.61c0,3.19,5,3.19,5,0V130.23c0-4.62.09-9.26,0-13.88v-.6c0-3.19-5-3.2-5,0Z"></path><path class="cls-3" d="M138.59,255H432.53c4,0,7.94.07,11.91,0H445c3.19,0,3.2-5,0-5H151c-4,0-7.94-.08-11.91,0h-.52c-3.2,0-3.2,5,0,5Z"></path><path class="cls-4" d="M337.3,170.24s-11.89-9.2-11.39-.15c.39,7.21,7.1,33.41,7.1,33.41s2.51,7.77,10.28,4.22C349.52,204.88,337.3,170.24,337.3,170.24Zm5.48,31.3c-4.79,1.82-6.09-3.1-6.09-3.1s-4.53-16.43-5.14-21.69,6.65.17,6.65.17S345.21,200.62,342.78,201.54Z"></path><path class="cls-3" d="M337.84,169.32a20.94,20.94,0,0,0-7.74-4.09c-1.63-.36-3.48-.22-4.5,1.28s-.81,3.49-.61,5.2c1.12,9.21,3.59,18.34,5.81,27.34a34.42,34.42,0,0,0,1.48,5.46c1.64,3.72,5.23,5.92,9.3,4.94,1.62-.39,3.1-1,3.82-2.53a10,10,0,0,0,.72-4.15,52.52,52.52,0,0,0-1.7-12,177.81,177.81,0,0,0-6-20.49c0-.12-.09-.25-.13-.37-.45-1.29-2.51-.73-2.05.56,1.79,5.09,3.37,10.27,4.76,15.49a101.55,101.55,0,0,1,2.6,12.06c.33,2.39.94,6-.24,8.12a1.08,1.08,0,0,1-.6.59,7.23,7.23,0,0,1-3.9.78,5.6,5.6,0,0,1-4-2.64,11.33,11.33,0,0,1-1.46-4c-2.08-8.28-4.12-16.6-5.66-25-.31-1.64-.6-3.29-.76-4.94-.11-1.12-.43-3.29,1-3.73s3.13.51,4.3,1.1a29.15,29.15,0,0,1,3.84,2.37c.21.14.42.29.62.45C337.85,172,338.91,170.15,337.84,169.32Z"></path><path class="cls-3" d="M342.5,200.52c-4.74,1.67-5.26-4.05-6.09-7.24s-1.7-6.56-2.47-9.86c-.34-1.5-.68-3-1-4.51-.11-.58-.79-2.8-.32-3.3s2.18.48,2.68.75a19.43,19.43,0,0,1,2.33,1.47l-.49-.63c2,6.65,4,13.5,4.89,20.38a15.15,15.15,0,0,1,.17,2.42c0,.41-.06.41-.07.66s0,0,.09,0c-1.25.57-.17,2.4,1.07,1.84,1.42-.65,1.06-3.14.93-4.34a66.94,66.94,0,0,0-1.43-7.83c-1-4.48-2.11-9-3.52-13.41-.43-1.3-2.4-2.15-3.55-2.69a5.43,5.43,0,0,0-3.53-.72,2.59,2.59,0,0,0-1.77,2.74c0,2.79,1,5.77,1.6,8.46.77,3.26,1.6,6.51,2.46,9.75.4,1.55.72,3.16,1.27,4.66a5.47,5.47,0,0,0,7.29,3.49C344.35,202.11,343.8,200.06,342.5,200.52Z"></path><polyline class="cls-4" points="368.51 235.78 346.34 222.06 330.95 146.93 368.51 132.3"></polyline><path class="cls-3" d="M369.05,234.87l-19.36-12-2.82-1.74.49.63-5.2-25.41-8.29-40.47L332,146.65l-.75,1.31,32.95-12.84,4.62-1.8c1.26-.49.71-2.54-.57-2l-33,12.84-4.61,1.8a1.08,1.08,0,0,0-.74,1.3L332.55,160l5.67,27.69,5.32,26L345,221a12.54,12.54,0,0,0,.27,1.33c.25.67,1,1,1.59,1.35l20.52,12.7.57.35c1.16.72,2.23-1.11,1.07-1.83Z"></path><path class="cls-4" d="M394.19,207.72c7.77,3.55,10.28-4.22,10.28-4.22s6.71-26.2,7.1-33.41c.5-9.05-11.39.15-11.39.15S388,204.88,394.19,207.72Zm5.09-30.8s7.26-5.44,6.65-.17-5.14,21.69-5.14,21.69-1.3,4.92-6.09,3.1C392.27,200.62,399.28,176.92,399.28,176.92Z"></path><path class="cls-3" d="M393.65,208.64c2.41,1.06,5,1.54,7.5.35a8.69,8.69,0,0,0,3.69-3.73,21.75,21.75,0,0,0,1.56-5.09c2.23-9,4.62-18.07,5.93-27.26.25-1.76.61-3.74,0-5.46a3.57,3.57,0,0,0-3.87-2.38c-3.09.24-6.35,2.27-8.73,4.17a2.78,2.78,0,0,0-.85,1.48c-.38,1.1-.74,2.2-1.1,3.3-1.24,3.82-2.4,7.66-3.43,11.54a97.82,97.82,0,0,0-2.72,13.09c-.34,2.71-.86,6.46.77,8.88a3.31,3.31,0,0,0,1.24,1.11c1.22.6,2.3-1.24,1.07-1.83a1.83,1.83,0,0,1-.92-1.33,10.92,10.92,0,0,1-.32-3.06,46.92,46.92,0,0,1,1.18-9,179.84,179.84,0,0,1,5.15-18.78c.45-1.38.91-2.77,1.39-4.14l-.49.64a28.75,28.75,0,0,1,3-2c1.5-.88,3.44-2.06,5.26-2s1.59,2.44,1.46,3.8c-.2,2-.58,4-1,6-1,5.39-2.27,10.74-3.54,16.08-.79,3.31-1.5,6.68-2.45,10a7.35,7.35,0,0,1-1.28,2.38c-1.92,2.42-4.78,2.57-7.49,1.39C393.48,206.26,392.4,208.09,393.65,208.64Z"></path><path class="cls-3" d="M399.82,177.83a11.17,11.17,0,0,1,4.32-2.27c1-.17.81.5.71,1.36-.14,1.09-.37,2.18-.6,3.26-1.13,5.44-2.55,10.83-4,16.2a15.11,15.11,0,0,1-.75,2.46,3.45,3.45,0,0,1-2,1.93c-.8.24-1.43-.16-2.19-.14-.06,0,0,.28,0,.08,0-.38-.09-1.14-.05-1.76a27.06,27.06,0,0,1,.36-2.85c.43-2.53,1-5,1.61-7.54q1.39-5.72,3.06-11.36a1.06,1.06,0,0,0-2.05-.57c-1.13,3.8-2.15,7.64-3.09,11.49-.66,2.72-1.29,5.46-1.71,8.23-.24,1.56-.8,3.89,0,5.39.57,1.06,2.13,1.27,3.21,1.27a4.94,4.94,0,0,0,3.68-1.65A8,8,0,0,0,402,197.9c1.56-5.72,3.09-11.47,4.29-17.28.43-2.1,1.91-6.88-1.49-7.21-2.13-.21-4.46,1.37-6.09,2.59C397.66,176.81,398.72,178.65,399.82,177.83Z"></path><polyline class="cls-4" points="368.97 235.78 391.14 222.06 406.53 146.93 368.97 132.3"></polyline><path class="cls-3" d="M369.5,236.7l19.22-11.89c1.2-.75,3.24-1.46,3.55-3l1.2-5.86,5-24.63L404.33,163c1.06-5.17,2.21-10.33,3.18-15.52,0-.08,0-.16,0-.24a1.09,1.09,0,0,0-.74-1.3l-32.95-12.84-4.61-1.8c-1.28-.49-1.83,1.56-.57,2l32.95,12.84,4.62,1.8-.75-1.31-5.2,25.42L392,212.54l-1.89,9.23.49-.63-19.37,12-2.81,1.75c-1.16.72-.1,2.56,1.07,1.83Z"></path><path class="cls-3" d="M367.45,136V231.7c0,1.29-.09,2.62,0,3.91v.17a1.07,1.07,0,0,0,2.13,0V140.09c0-1.29.09-2.62,0-3.91a1,1,0,0,1,0-.17,1.07,1.07,0,0,0-2.13,0Z"></path><rect class="cls-4" x="365.31" y="171.49" width="6.86" height="42.42" rx="2.5"></rect><path class="cls-3" d="M369.67,212.85c-1.36,0-3.14.29-3.29-1.55-.05-.6,0-1.22,0-1.83v-31.1a37.65,37.65,0,0,1,0-4.38c.23-2.05,4.5-2.08,4.72,0a10.93,10.93,0,0,1,0,1.28v35.14c0,1.07,0,2.34-1.43,2.44s-1.37,2.22,0,2.12a3.67,3.67,0,0,0,3.56-3.72c0-.78,0-1.56,0-2.34v-33.1c0-.6,0-1.2,0-1.8-.11-2.54-2.09-3.58-4.38-3.58a5.18,5.18,0,0,0-3,.57,3.68,3.68,0,0,0-1.63,3c0,.54,0,1.1,0,1.64v33.13c0,2.49-.23,5.69,3.08,6.16a16.62,16.62,0,0,0,2.34,0A1.06,1.06,0,0,0,369.67,212.85Z"></path><rect class="cls-4" x="365.31" y="171.49" width="6.86" height="32.88" rx="2.5"></rect><path class="cls-3" d="M369.67,203.31c-1.3,0-3.09.31-3.29-1.45a9.73,9.73,0,0,1,0-1.08v-23.5c0-1.1-.33-2.79.12-3.84s2.93-1.25,3.89-.69c.72.42.71,1.16.71,1.87v23.87c0,1.37.6,4.68-1.43,4.82-1.36.09-1.37,2.22,0,2.12a3.65,3.65,0,0,0,3.56-3.59c0-.52,0-1.05,0-1.58V174.79a5.71,5.71,0,0,0-.23-2c-.75-2-2.62-2.31-4.49-2.31s-3.81.8-4.2,2.94a8.68,8.68,0,0,0-.06,1.61v26a5,5,0,0,0,.49,2.68c1.09,1.87,3.05,1.77,4.93,1.77A1.06,1.06,0,0,0,369.67,203.31Z"></path><path class="cls-3" d="M368.8,161.08l32.84-11.47,4.72-1.65a1.07,1.07,0,0,0,0-2.05L373.25,133a32,32,0,0,0-4.41-1.72c-1-.23-2.55.74-3.48,1.1l-19.16,7.46-15.53,6.06a1.07,1.07,0,0,0,0,2.05l32.84,11.47,4.72,1.65c1.3.45,1.85-1.6.57-2.05L336,147.56l-4.73-1.65V148l32.95-12.84,3-1.18c.27-.1,1.35-.33,1.52-.59.07-.11-.49-.11-.43,0s.43.17.52.2l2.41.94,19.26,7.5,15.3,6v-2.05L373,157.38,368.23,159C367,159.48,367.5,161.53,368.8,161.08Z"></path><path class="cls-3" d="M369,158.08l24-8.4,3.4-1.19a1.79,1.79,0,0,0,0-3.41l-24.19-9.43a31.74,31.74,0,0,0-3.23-1.26c-1-.25-2.12.44-3,.79l-14.12,5.5-11.29,4.4a1.79,1.79,0,0,0,0,3.41l24,8.4,3.4,1.19c2.16.75,3.09-2.67.94-3.42l-24-8.4-3.4-1.18v3.41l24-9.36,2.25-.87c.16-.06,1-.27,1.1-.43-.12.27-1.38-.28-.42.15.55.25,1.14.44,1.71.67l14.1,5.49,11.17,4.35v-3.41l-24,8.4-3.4,1.18C365.9,155.41,366.82,158.84,369,158.08Z"></path><path class="cls-1" d="M368.51,136l27.3,10.73-27.3,9.63-27.3-9.63L368.51,136m0-2.86-34.9,13.73,34.9,12.31,34.9-12.31-34.9-13.73Z"></path><path class="cls-3" d="M368.8,161.08l32.84-11.47,4.72-1.65a1.07,1.07,0,0,0,0-2.05L373.25,133a32,32,0,0,0-4.41-1.72c-1-.23-2.55.74-3.48,1.1l-19.16,7.46-15.53,6.06a1.07,1.07,0,0,0,0,2.05l32.84,11.47,4.72,1.65c1.3.45,1.85-1.6.57-2.05L336,147.56l-4.73-1.65V148l32.95-12.84,3-1.18c.27-.1,1.35-.33,1.52-.59.07-.11-.49-.11-.43,0s.43.17.52.2l2.41.94,19.26,7.5,15.3,6v-2.05L373,157.38,368.23,159C367,159.48,367.5,161.53,368.8,161.08Z"></path><path class="cls-3" d="M292.45,475.45H291.1l-.46-.16c-.9-.31-22.36-8-48.59-24.94-24.25-15.72-57.15-42.69-76.09-82-32.31-67-30.79-131.53-30.72-133.85V111.91H448.31V234.52c.07,2.32,1.59,66.87-30.72,133.85-18.95,39.29-51.84,66.26-76.09,82-26.24,17-47.69,24.63-48.59,24.94ZM140.91,117.58V234.67c0,.64-1.95,64.68,30.15,131.24,33.43,69.29,112.19,100.55,120.71,103.76,8.53-3.21,87.29-34.47,120.72-103.76,32.13-66.62,30.17-130.6,30.15-131.24V117.58Z"></path><circle class="cls-4" cx="224.27" cy="326.26" r="54.76"></circle><path class="cls-3" d="M224.27,382.44a56.19,56.19,0,1,1,56.18-56.18A56.25,56.25,0,0,1,224.27,382.44Zm0-109.53a53.35,53.35,0,1,0,53.35,53.35A53.41,53.41,0,0,0,224.27,272.91Z"></path><path class="cls-3" d="M224.27,353.44a27.18,27.18,0,1,1,27.18-27.18A27.21,27.21,0,0,1,224.27,353.44Zm0-52.24a25.06,25.06,0,1,0,25,25.06A25.08,25.08,0,0,0,224.27,301.2Z"></path><path class="cls-3" d="M224.25,314.09a4.52,4.52,0,1,1,4.52-4.51A4.51,4.51,0,0,1,224.25,314.09Zm0-6.9a2.39,2.39,0,1,0,2.39,2.39A2.39,2.39,0,0,0,224.25,307.19Z"></path><path class="cls-3" d="M240.56,325.92a4.52,4.52,0,1,1,4.51-4.51A4.52,4.52,0,0,1,240.56,325.92Zm0-6.9a2.39,2.39,0,1,0,2.39,2.39A2.39,2.39,0,0,0,240.56,319Z"></path><path class="cls-3" d="M234.38,345.27a4.52,4.52,0,1,1,4.52-4.51A4.51,4.51,0,0,1,234.38,345.27Zm0-6.9a2.39,2.39,0,1,0,2.39,2.39A2.39,2.39,0,0,0,234.38,338.37Z"></path><path class="cls-3" d="M214.24,345.27a4.52,4.52,0,1,1,4.52-4.51A4.51,4.51,0,0,1,214.24,345.27Zm0-6.9a2.39,2.39,0,1,0,2.39,2.39A2.4,2.4,0,0,0,214.24,338.37Z"></path><path class="cls-3" d="M208,325.92a4.52,4.52,0,1,1,4.52-4.51A4.51,4.51,0,0,1,208,325.92Zm0-6.9a2.39,2.39,0,1,0,2.39,2.39A2.4,2.4,0,0,0,208,319Z"></path><path class="cls-3" d="M224.27,360.86a34.61,34.61,0,1,1,34.6-34.6A34.64,34.64,0,0,1,224.27,360.86Zm0-68.36A33.76,33.76,0,1,0,258,326.26,33.79,33.79,0,0,0,224.27,292.5Z"></path><path class="cls-1" d="M218.43,328.74a7.64,7.64,0,0,1,8.76-6.3,7.1,7.1,0,0,1,3.66,1.95,6.67,6.67,0,0,0-5.14-4.95,6.91,6.91,0,0,0-7.93,5.7,7.26,7.26,0,0,0,.57,4.47A8.52,8.52,0,0,1,218.43,328.74Z"></path><path class="cls-3" d="M224.27,335.07a8.82,8.82,0,1,1,8.81-8.81A8.82,8.82,0,0,1,224.27,335.07Zm0-15.5a6.69,6.69,0,1,0,6.69,6.69A6.7,6.7,0,0,0,224.27,319.57Z"></path><path class="cls-1" d="M180.18,331.05a46.24,46.24,0,0,1,89.41-16.55,46.81,46.81,0,1,0-84.27,37.72A46,46,0,0,1,180.18,331.05Z"></path><path class="cls-3" d="M224.27,374.13a47.88,47.88,0,1,1,47.87-47.87A47.92,47.92,0,0,1,224.27,374.13Zm0-93.62A45.75,45.75,0,1,0,270,326.26,45.8,45.8,0,0,0,224.27,280.51Z"></path><path class="cls-3" d="M203.25,207.93,191.36,194.4c-.39,12.86-22.32,18.41-27.84,34.8l1.65,1.88C182.13,227.71,190.46,206.67,203.25,207.93Z"></path><path class="cls-3" d="M164.78,232.21l-2.43-2.77.19-.57c2.82-8.38,9.79-14,15.94-19s11.66-9.46,11.85-15.49l.07-2.62,15.36,17.47-2.61-.26c-6-.59-11.05,4.21-16.88,9.77s-12.23,11.64-20.9,13.36ZM164.7,229l.84,1c7.8-1.76,13.64-7.33,19.3-12.71,5.25-5,10.24-9.76,16.13-10.33l-8.88-10.1c-1.32,5.76-6.68,10.1-12.31,14.67C173.71,216.39,167.44,221.47,164.7,229Z"></path><circle class="cls-4" cx="163.95" cy="230.03" r="5.38"></circle><path class="cls-1" d="M160,229a4.84,4.84,0,0,1,6.83.26,4.47,4.47,0,0,1,1.07,2.4,4.22,4.22,0,0,0-.64-4.48A4.39,4.39,0,0,0,161,227a4.58,4.58,0,0,0-1.45,2.46A4.86,4.86,0,0,1,160,229Z"></path><path class="cls-3" d="M159.14,234.26a6.41,6.41,0,1,1,9,.58A6.41,6.41,0,0,1,159.14,234.26Zm8.08-7.1a4.35,4.35,0,1,0-.4,6.13A4.35,4.35,0,0,0,167.22,227.16Z"></path><path class="cls-1" d="M200.69,210.83a19.32,19.32,0,0,0-12-14.86l.77-1.91a21.35,21.35,0,0,1,13.28,16.42Z"></path><polygon class="cls-1" points="272.51 143.91 275.23 132.69 263.75 133.94 194.45 191.69 200.39 198.46 206.34 205.22 272.51 143.91"></polygon><path class="cls-3" d="M206.26,206.7,193,191.58l70.36-58.64,13.25-1.44-3.13,12.95Zm-10.34-14.89,10.49,11.93,65.17-60.38,2.3-9.49-9.7,1.06Z"></path><rect class="cls-3" x="187.99" y="164.54" width="99.63" height="2.07" transform="translate(-50.12 198.19) rotate(-41.31)"></rect><path class="cls-3" d="M178.92,185.33s1.34,4.5,11.38,8.57c11.17,4.54,16,16.92,11,28.84,0,0,8.06-.07,9.7-9.47,2.6-14.93-18.71-15.24-17.61-31.37"></path><path class="cls-3" d="M200.25,223.48l.42-1a22.24,22.24,0,0,0,.29-17.18A19.76,19.76,0,0,0,190,194.58c-10.26-4.16-11.75-8.84-11.81-9l1.4-.43s1.47,4.26,11,8.11a21.25,21.25,0,0,1,11.74,11.49,23.5,23.5,0,0,1,.15,17.16c2.15-.4,6.69-2,7.86-8.73,1.22-7-3.25-10.69-8-14.54-5-4.08-10.21-8.3-9.63-16.74l1.46.1c-.52,7.68,4.37,11.66,9.09,15.5s9.88,8,8.51,15.93c-1.72,9.9-10.33,10.08-10.41,10.08Z"></path><circle class="cls-1" cx="185.86" cy="182.07" r="7.36"></circle><path class="cls-4" d="M191.09,183.07A10.56,10.56,0,0,0,179,180.53a7,7,0,0,0,1.37,6c.05.07.09.15.15.22a7,7,0,0,0,9.82.63,6.89,6.89,0,0,0,1.85-2.69A9.81,9.81,0,0,0,191.09,183.07Z"></path><path class="cls-1" d="M204.48,201.89a9.55,9.55,0,0,1,3.78,3.36,10.66,10.66,0,0,1,1.8,4.88,11.06,11.06,0,0,1-.67,5.14,12.78,12.78,0,0,1-1.12,2.29,16.61,16.61,0,0,1-1.58,1.95c.17-.84.45-1.59.65-2.37s.42-1.52.49-2.29a15.46,15.46,0,0,0,.17-4.49A17.8,17.8,0,0,0,204.48,201.89Z"></path><path class="cls-3" d="M192.06,177.68c-1.64-.1-3.34-.07-4.35.56a2,2,0,0,0-.87,1.31,7.45,7.45,0,0,0-.16.91l0,1a10.14,10.14,0,0,1-.23,2.71,4.43,4.43,0,0,1-1.6,2.56,3.59,3.59,0,0,1-2.87.59,4.83,4.83,0,0,1-2.31-1.16c1.62.24,3.32,0,4-.82s.78-2.29.68-3.75l0-1.37a6.38,6.38,0,0,1,.35-1.45,3.64,3.64,0,0,1,2.21-2.24A5.69,5.69,0,0,1,192.06,177.68Z"></path><path class="cls-3" d="M179.56,187.61a8.39,8.39,0,1,1,11.84.76A8.4,8.4,0,0,1,179.56,187.61Zm11.06-9.72a6.33,6.33,0,1,0-.58,8.94A6.33,6.33,0,0,0,190.62,177.89Z"></path><path d="M417.62,312.58c-4.95.41-7.68-2.64-13.46-8.67a16.49,16.49,0,0,0-4.54-3.46c1.11,0,2.56.61,7.27,3.41,6.62,3.93,11.17-5.73,11.17-5.73s-3.52,2.26-6.71,2.15-3.19-1.32-8.81-5.39c-4.32-3.14-10.35-3.08-12.91-2.88-.34-.22-.51-.44-.36-.68a.67.67,0,0,1,.23-.21,8.88,8.88,0,0,1,7.87-1.23,17.23,17.23,0,0,1,2.17,1.06,13,13,0,0,0-5.65-6.05,9.43,9.43,0,0,0-5.21-1.18,15.49,15.49,0,0,0-5.64,1.46,28.17,28.17,0,0,1-3.57,1.41,3.27,3.27,0,0,1-1.12,0,5.08,5.08,0,0,1,.54-.91c2.05-2.27,4.84-3.33,7.51-4.6a41.41,41.41,0,0,0,5.09-2.73,7.73,7.73,0,0,0,3.49-5.56c0-.18,0-.36,0-.67l-.62.53a17.63,17.63,0,0,1-9.15,4.06c-1.83.25-3.7.21-5.53.5a28.33,28.33,0,0,0-5.31,1.27c-1.8.64-3.48,1.63-5.22,2.45a.58.58,0,0,1-.62,0c.22-3.3,4.23-6.36,6.19-8.73a53.32,53.32,0,0,0,3.34-4.42,8.54,8.54,0,0,0,1.37-4.47,10.39,10.39,0,0,1-6.75,5.46c-2.11.63-4.27,1.06-6.39,1.65a32,32,0,0,0-10.59,4.89,16.26,16.26,0,0,0-5.41,6.23c-.22.49-.44,1-.68,1.49-.69-.57-1.56-3.56-1.47-5,.3-4.52,3.09-7.13,7.07-8.95a6.85,6.85,0,0,0-3.71.76,22.2,22.2,0,0,0-9.86,8.31c-1.48,2.13-2.59,4.51-3.91,6.75a2.77,2.77,0,0,1-1.07,1.05c-1.35.67-2.76,1.22-4.11,1.87a1.35,1.35,0,0,1-1.4,0,13.51,13.51,0,0,1-4.8-4.67c-.72-1.11-1.35-2.27-2.07-3.5a6.21,6.21,0,0,0-.36.64,6.67,6.67,0,0,0,.28,5.61,16,16,0,0,0,3.51,4.38c.16.14.17.44.25.67-.26,0-.61,0-.76-.11-1.82-1.76-3.64-3.52-5.4-5.34-.84-.88-1.54-1.88-2.31-2.83l-.19,0c.16,1.22.34,2.45.48,3.68a25.25,25.25,0,0,0,2.32,8.2c1.46,3,3.54,5.27,7,5.9a3.78,3.78,0,0,1,.71.32,6,6,0,0,1-.9.38,3.72,3.72,0,0,1-2.92-.92c-.78-.54-1.55-1.11-2.37-1.6-.65-.38-.91-.25-1.15.48l-2.13,6.74c-.22.69-.42,1.38-.64,2.07l.2.1,3-2.36.18.21c-.36.49-.72,1-1.1,1.48-1.8,2.31-3.74,4.46-6.54,5.61a.66.66,0,0,0-.25.57c.21.86.47,1.7.78,2.77v-.83c0-1.12.12-1.19,1.22-1.19a17.7,17.7,0,0,0,2.63-.09c3.29-.55,5.82-2.46,8.07-4.78,2.09-2.16,4.1-4.4,6.2-6.55a1.92,1.92,0,0,0,.52-2.18c-.51-1.38-1-2.76-1.58-4.12-.19-.45-.18-.68.35-.81a41.83,41.83,0,0,1,19.74-.12,35.47,35.47,0,0,1,15.24,8.12,28.94,28.94,0,0,1,5.51,6.75c.62,1,2.75,3.91,2.23,5.25a.45.45,0,0,1-.14-.06c-.18-.28-.36-.55-.52-.83a36.69,36.69,0,0,0-9.17-10.64,33.92,33.92,0,0,0-19.95-7.19,44.2,44.2,0,0,0-9.75.45,10.92,10.92,0,0,0-1.11.34c.15.37.29.73.44,1.09a1.24,1.24,0,0,0,.14.18,9,9,0,0,0,3.8,2.59c.67.31,1.29.73,1.93,1.1l-.15.29a12.23,12.23,0,0,0-1.19-.31c-1.76-.35-3.5-.83-5.1.62a45.77,45.77,0,0,0-9.48,12.07c-1.76,3.23-3.37,6.56-4.81,9.94-1.34,3.16-2.37,6.44-3.54,9.66a9.68,9.68,0,0,1-1,2.57,29.5,29.5,0,0,1-2.84,3,4,4,0,0,1-.58.44,8.44,8.44,0,0,1,1.78-3.41,7.5,7.5,0,0,0,1-1.89c.56-1.87.91-3.81,1.53-5.65a70.51,70.51,0,0,1,6.14-13.54c.52-.87,1-1.75,1.65-2.82a3,3,0,0,0-.43.25c-1.09,1.12-2.18,2.22-3.24,3.36s-1.91,2.12-2.88,3.17c-.38.43-.68.41-.92-.18a12.7,12.7,0,0,0-1-1.94c-.39-.6-.71-.58-1,.1q-1.16,2.85-2.2,5.74c-.8,2.23-1.53,4.5-2.33,6.73a5.4,5.4,0,0,1-.43.87,11.49,11.49,0,0,0-2.36,3,19.11,19.11,0,0,0-1.07,2.51c0-.06-.07.16-.09.19a2,2,0,0,1-.18.32l-.34.5a3,3,0,0,0-.41,1,6,6,0,0,0-.49,1.06,6.08,6.08,0,0,1-1.53,2.75,7.61,7.61,0,0,0-2.56,5.51,2.24,2.24,0,0,0,.54,1.22c.84,1.09,1.78,2.09,2.59,3.2s1.5,2.43,2.34,3.58a6.47,6.47,0,0,0,7.88,2.53,1.37,1.37,0,0,0,.74-.72c.38-.95.64-2,1-2.91a11.44,11.44,0,0,1,2.73-4.45,7.62,7.62,0,0,1,.8-.56l.17.19a8.19,8.19,0,0,1-.47.68,14,14,0,0,0-2.79,6.41c-.08.37,0,.7.55.61.92-.14,1.86-.14,2.76-.34,2-.45,2.36.23,2.47-2.55a10.83,10.83,0,0,1,1.59-5.72c.15-.23.47-.35.71-.52a6,6,0,0,1,.15,1c0,.17-.17.35-.27.52l-.43.87.2.15c4.15-2.22,7.33-5.68,11-8.79-3-.76-5.93-1.16-8.58-2.5a4.19,4.19,0,0,1,1.27,0,31.53,31.53,0,0,0,9.35-.34c2.92-.69,5.38-2,6.52-5,.21-.56.47-1.11.63-1.69.52-1.86,1-3.72,1.47-5.59.4-1.66,1.88-2.29,3.23-1.27a34.71,34.71,0,0,1,8.12,8.8,38.45,38.45,0,0,1,5.62,14c.45,2.35.69,4.74,1,6.89,2.3-13.75-.86-26.41-9.27-37.85a22.86,22.86,0,0,1,3,2.28,33.77,33.77,0,0,1,6.89,9A33,33,0,0,1,369,342.64a52.69,52.69,0,0,1,0,6.53,24.67,24.67,0,0,1-.49,4,46.54,46.54,0,0,1-2.89,9.78,49.09,49.09,0,0,1-3.4,6.71c-2.9,4.42-10.1,7.52-12.31,8.66,0,0,10,.38,14.61-2.21-7.84,10.14-24,8.81-24,8.81,3.64,5.12,13.27,3.67,13.27,3.67h0c-23.39,19.56-23.93,43.79-23.93,43.79,2.38-10.31,9.84-20.12,18.62-28.42A19.18,19.18,0,0,0,351,414.72a31.48,31.48,0,0,1,4.48-17.22l.24-.38.52-.76.3-.4c.18-.26.38-.52.58-.77l.21-.26c.43-.52.88-1,1.37-1.53l.24-.26.77-.74.36-.32.84-.72.21-.16c.59-.47,1.22-.92,1.88-1.36a26.7,26.7,0,0,1,2.59-1.51c7.29-3.71,14-7.13,19.86-11.24h0l.17-.12c.5-.35,1-.71,1.48-1.07l.23-.17c1.42-1.08,2.79-2.21,4.09-3.4l.48-.44.05-.06a44.35,44.35,0,0,0,6.9-8.2c1.08-1.82,1.61-3,1.61-3h0c.56-.92,1.09-1.86,1.6-2.82.12-.25.25-.49.37-.72A53.75,53.75,0,0,0,407,345a51.89,51.89,0,0,0,1.4-8c.27-3.57.24-7.17.16-10.75a18.61,18.61,0,0,0-.29-2.68c1.35,4.92,9.37,5.22,9.37,5.22-6.52-5-5.92-9.25-7.44-14.41a9.25,9.25,0,0,0-.49-1.23l.31.17C415.83,316.29,417.62,312.58,417.62,312.58ZM312.33,334.43l.13-.12v.15Z"></path><path class="cls-3" d="M468.65,449.34c-5.06-3.91-10-7.93-15.07-11.88s-10.22-8-15.35-12q-3.64-2.82-7.31-5.59c-1.73-1.29-2.95-2.8-5.17-1.93s-4.08,2.54-5.92,3.83-3.83,2.78-5.69,4.25a99.17,99.17,0,0,0-11.49,10.58c-6.58,7.15-12,15.53-14.78,24.91-1.33,4.51-2.31,9.55-1.79,14.27a26.36,26.36,0,0,1-3.87,2.74q-2.64,1.81-5.39,3.46-4.92,3-10.08,5.54l-2.12,1a180,180,0,0,1-25.07,9.23,184.41,184.41,0,0,1-21.34,4.74,174.72,174.72,0,0,1-24.28,1.88c-33.36.23-66.78-8.32-94.43-27.13-.55-.38-1.1-.89-1.69-1.24.62-5.5-.73-12.26-2.54-17.42a60.44,60.44,0,0,0-7.33-14.22c-6.35-9.21-14.75-16.82-23.88-23.2-1.12-.79-2.26-1.55-3.4-2.3a4.81,4.81,0,0,0-2.59-1.23c-2.27,0-4.47,2.42-6.14,3.67-5,3.69-9.82,7.5-14.67,11.33s-10,7.84-14.93,11.77c-2.43,1.91-4.83,3.85-7.27,5.73-1.21.93-2.8,1.5-2.43,3.28.46,2.26,2,4.6,3.13,6.58q2.23,4,4.81,7.82a162.83,162.83,0,0,0,10.27,13.69,182.68,182.68,0,0,0,14.32,15.26s0,0,0,.06q-6.08,13.9-12.16,27.82c-.58,1.31-1.15,2.63-1.73,4-.41.94.9,1.19,1.6,1,8.76-2.75,17.06-6.76,23.93-12.59-3.18,9.53-6.3,19.09-9.45,28.63l-1.52,4.62c-.34,1,1.64.77,2.06.6,7.23-2.83,13.41-7.75,18.7-13.16a94.88,94.88,0,0,0,11.16-13.86c.33-.48.63-1,.93-1.49a197.44,197.44,0,0,0,37,17.38,227.46,227.46,0,0,0,71.84,12.2,235.51,235.51,0,0,0,73-10.1A203.38,203.38,0,0,0,404.66,522c1.7,2.43,3.22,5,5,7.35a81.71,81.71,0,0,0,14.79,15.29,45.83,45.83,0,0,0,11.33,6.56c.8.32,2.61-.26,2.25-1.34l-10.58-32a67.43,67.43,0,0,0,23,12,2.07,2.07,0,0,0,1.23,0c.72-.19,1.3-.69,1-1.33l-12.42-28.4-1.69-3.87q4.5-4.29,8.7-8.85C455,479,462.55,469.79,468,459.72c.71-1.31,1.38-2.64,2-4a14,14,0,0,0,1.28-3.07C471.6,450.91,469.8,450.23,468.65,449.34Zm-221.89,96a198.71,198.71,0,0,1-90.85-43.72c-12.78-11-24.61-23.83-33.6-38.15-1.08-1.72-2.11-3.48-3-5.28-.45-.84-.87-1.69-1.28-2.56s-1.53-2.63-1.45-3.52c.11.19,1-.7,1.17-.8.88-.68,1.74-1.39,2.6-2.08,1.81-1.46,3.65-2.89,5.48-4.33,7.39-5.83,14.78-11.66,22.23-17.42q4.5-3.49,9.07-6.91c17.34,11.34,34.9,28.23,36.69,50,.1,1.21.12,2.42.1,3.63a191,191,0,0,1-16.77-14.07A100.44,100.44,0,0,1,164.4,446c-.37-1.54-.65-3.32.1-4.74a2.54,2.54,0,0,1,.82-.87l.32-.18c.12-.05-.09,0,.16-.05l.37-.1.11,0s0,0,0,0c.24,0,.49,0,.73-.05h.23l.37,0,.47.06.23,0,.7.15c.52.13,1,.28,1.54.44l.08,0,.08,0,.29.11c.19.07.39.14.57.22q.63.24,1.23.54a2.07,2.07,0,0,0,1.6.08.65.65,0,0,0,.38-.93c-.88-1.24-1.84-2.45-2.83-3.61a34.38,34.38,0,0,0-5.57-5.41c-1.89-1.43-4.3-2.74-6.81-2.53a4.65,4.65,0,0,0-3.16,1.54,4.87,4.87,0,0,0-.85,3.55,14.17,14.17,0,0,0,1.84,5.55s.06.06.09.1c2.08,4.25,5.26,8.13,8.4,11.77a141.37,141.37,0,0,0,15.51,15.12c4.35,3.7,9,7.33,13.84,10.81a87.39,87.39,0,0,0,7.85,5.15q2.1,1.19,4.24,2.31a158.55,158.55,0,0,0,14.6,7.25,172.17,172.17,0,0,0,47.18,12.85,178.77,178.77,0,0,0,95.53-14.37,132.79,132.79,0,0,0,21.5-12.11,19.23,19.23,0,0,0,3.36-2.45c4.17-3.06,8.19-6.22,12-9.44A140.33,140.33,0,0,0,417,451.69c3.15-3.64,6.33-7.51,8.41-11.77,0,0,.07-.06.09-.1a14.51,14.51,0,0,0,1.84-5.55,4.87,4.87,0,0,0-.85-3.55,4.65,4.65,0,0,0-3.17-1.54c-2.5-.21-4.91,1.1-6.8,2.53a34.85,34.85,0,0,0-5.58,5.41c-1,1.16-1.95,2.37-2.82,3.61-.26.37,0,.77.38.93a2.07,2.07,0,0,0,1.6-.08c.4-.2.81-.38,1.22-.54l.58-.22.29-.11.08,0,.08,0c.51-.16,1-.31,1.54-.44l.69-.15.24,0,.47-.06.37,0h.23c.24,0,.49,0,.73.05.06,0,.05,0,0,0l.11,0,.37.1c.25.07,0,0,.16.05l.32.18a2.54,2.54,0,0,1,.82.87c.75,1.42.47,3.2.1,4.74a100.44,100.44,0,0,1-12.7,14.12,189.41,189.41,0,0,1-15.73,13.29,12,12,0,0,1-.12-1.28,36.45,36.45,0,0,1,1.71-10.81c4.11-14,14.41-25.7,25.67-34.64,2.75-2.17,5.6-4.2,8.52-6.13,7.16,5.25,14.12,10.76,21.09,16.25q5.29,4.19,10.59,8.34l5.42,4.28c.69.54,1.37,1.09,2.06,1.62a10.79,10.79,0,0,1,2,1.51c.73,1-.78,3.16-1.34,4.16-1,1.82-2,3.66-3.11,5.46-2.21,3.69-4.65,7.25-7.2,10.71a172,172,0,0,1-16.69,19.37,193.67,193.67,0,0,1-87,50.07C317.83,551.37,281.21,552.16,246.76,545.32Zm165.82-106.6.06-.07a41.76,41.76,0,0,1,4.46-4.76,18.28,18.28,0,0,1,2.57-1.95,6.89,6.89,0,0,1,1.08-.57l.46-.17.48-.13a3,3,0,0,1,.43,0l.37,0,.31.09a.64.64,0,0,0,.14.16c2.12,1.67,1.15,4.81.23,7a24.67,24.67,0,0,1-1.57,3.07,3.91,3.91,0,0,0-2.93-3.08A11,11,0,0,0,412.58,438.72Zm-252.11-7.66.37,0a3.13,3.13,0,0,1,.43,0l.48.13.46.17a6.89,6.89,0,0,1,1.08.57,18.88,18.88,0,0,1,2.57,1.95,42.67,42.67,0,0,1,4.46,4.76l.06.07a11,11,0,0,0-6.09-.39,3.91,3.91,0,0,0-2.93,3.08,24.67,24.67,0,0,1-1.57-3.07c-.92-2.22-1.89-5.36.23-7a.64.64,0,0,0,.14-.16Zm-3,112a46.44,46.44,0,0,1-8.2,5.17l10.17-30.78c.51-1.54,1-3.08,1.52-4.62.42-1.23-2.21-.66-2.63-.22-6.43,6.77-14.69,11.39-23.6,14.48l11.54-26.39.81-1.85a196,196,0,0,0,29.4,22.37c-1.65,2.33-3.1,4.8-4.84,7.09A78.51,78.51,0,0,1,157.5,543ZM448,525.17l.71,1.61c-8.7-3.12-16.79-7.67-23.09-14.31-.75-.78-3.21-.35-2.75,1,3.65,10.83,7.17,21.71,10.75,32.56.2.61.4,1.22.61,1.84a56.17,56.17,0,0,1-15.11-11.66,94.86,94.86,0,0,1-10.6-13.35c-.43-.65-.83-1.31-1.24-2a196.72,196.72,0,0,0,29.1-22.31Q442.23,511.87,448,525.17Z"></path><path class="cls-3" d="M158.84,467.08c2,.95,6.11,5.45,6.11,5.45s-9.73-.2-11.54,2.18-1.06,5.07-.07,6,4.13,2.85,9.4-.1,5.57-5.15,5.57-5.15l2.41,2.05s-8.14,7.38-8.81,10.59c-.37,1.82-2.66-2.28-2.66-2.28l1-1.39s-3.84,1.18-7.63-2.92-2.93-7.75-1.66-9.26,6.36-3.07,8.18-2.83a2.08,2.08,0,0,0-1.59-1.55C154.08,467.06,156.18,465.8,158.84,467.08Z"></path><path class="cls-3" d="M158.68,467.19c2.34,1.19,4.32,3.51,6.08,5.43l.27-.21a43.31,43.31,0,0,0-5.81.27c-2,.22-5,.46-6.21,2.32a5,5,0,0,0-.44,4.95,4,4,0,0,0,2.05,1.74c3,1.33,6.3.12,8.94-1.45a15.17,15.17,0,0,0,4.13-3.34,3.7,3.7,0,0,0,.83-1.5l-.4.1,1.59,1.36a4,4,0,0,1,.73.63c.1.14.13-.17,0,.05a6.56,6.56,0,0,1-1.09,1c-.65.63-1.29,1.26-1.92,1.91a43.73,43.73,0,0,0-4.08,4.63,11.31,11.31,0,0,0-1.35,2.16c-.11.24-.16.54-.28.77-.28.52-.56.12-.87-.23a6.11,6.11,0,0,1-1.33-1.94c-.05-.22,0-.18.24-.52l.66-.94c.09-.13-.16-.13-.22-.11a6.63,6.63,0,0,1-4.71-.76,10.47,10.47,0,0,1-5.36-7.22,4.7,4.7,0,0,1,2.14-4.95,12.54,12.54,0,0,1,6.78-1.84c.08,0,.31-.06.28-.18A2.19,2.19,0,0,0,158,467.8c-.29-.11-2-.35-2-.79,0-.91,2.41.05,2.7.18.12.06.5-.13.32-.21-.48-.22-3.27-1.23-3.47-.07-.09.49.88.76,1.2.86,1,.3,2,.55,2.19,1.67l.28-.18a12.36,12.36,0,0,0-5.34,1.1c-1.49.58-3,1.29-3.72,2.82-2,4.36,2.2,9.67,6.2,11.06a6.65,6.65,0,0,0,3.92.26l-.23-.12-1,1.39s0,.06,0,.1c.43.77,1.32,2.66,2.34,2.77.5.05.62-.33.75-.73a9,9,0,0,1,1.33-2.46,51.53,51.53,0,0,1,7.4-7.94s.07-.08,0-.12l-2.41-2.05c-.09-.08-.37,0-.39.1-.21,1.37-1.85,2.61-2.85,3.36-2.75,2.07-6.58,4.15-10.08,2.78a4.43,4.43,0,0,1-1.94-1.33,4.63,4.63,0,0,1-.12-4.78c1.16-2.17,4.19-2.36,6.38-2.59a43.76,43.76,0,0,1,5.37-.22c.07,0,.38-.09.27-.21-1.78-1.93-3.77-4.26-6.14-5.47C158.87,466.92,158.5,467.1,158.68,467.19Z"></path><path class="cls-3" d="M304.56,521.84c2-.89,8.11-1.13,8.11-1.13s-6.45,7.28-5.81,10.2,3.17,4.09,4.49,3.91,4.84-1.29,6-7.22-.31-7.58-.31-7.58l3.12-.5s.35,11,2.36,13.57c1.14,1.46-3.46.55-3.46.55l-.43-1.65s-1.59,3.69-7.16,3.91-7.81-2.78-8.13-4.73,1.79-6.83,3.15-8.06a2.09,2.09,0,0,0-2.22.21C301.46,525.44,301.86,523,304.56,521.84Z"></path><path class="cls-3" d="M304.64,521.89a18.85,18.85,0,0,1,5.69-.95,18.43,18.43,0,0,0,2-.13c.33-.06.26-.08,0,.11a16.41,16.41,0,0,0-2.44,3.06,22.91,22.91,0,0,0-2.72,4.43,4.18,4.18,0,0,0,.25,4.37,4.46,4.46,0,0,0,3.72,2.15c2.61-.16,4.66-2.4,5.62-4.66a16.84,16.84,0,0,0,1.21-7.91,4.53,4.53,0,0,0-.71-2.41l-.23.16,2-.33a4.65,4.65,0,0,1,1-.15c.13,0,0-.13,0,.1a32.57,32.57,0,0,0,.25,3.94,47.71,47.71,0,0,0,.87,6.17,12.55,12.55,0,0,0,.73,2.4c.25.59,1.19,1.44.1,1.59a5.81,5.81,0,0,1-1.44-.08,3.06,3.06,0,0,1-1.1-.16c-.32-.21-.41-1.19-.54-1.65,0-.11-.37,0-.4.09-2.72,6.18-16.62,4.73-14.67-3a12.63,12.63,0,0,1,2.92-5.91s0-.05,0-.06a2.44,2.44,0,0,0-2.41.17c-.37.22-2.14,1.46-1.62.3a4,4,0,0,1,2-1.64c.25-.12-.13-.12-.24-.07-.58.28-2.5,1.25-2.3,2.17.14.65,1.26,0,1.55-.14.69-.39,1.38-1.08,2.26-.79.38.13.32.11.06.4a8,8,0,0,0-1,1.5,16.74,16.74,0,0,0-1.74,4.46,4.89,4.89,0,0,0,2.46,5.36,10.87,10.87,0,0,0,9,.6,7.18,7.18,0,0,0,4.09-3.4l-.41.09.43,1.65,0,0A10.11,10.11,0,0,0,322,534c.26,0,.72-.09.88-.34s-.25-.82-.42-1.14a14.55,14.55,0,0,1-1.25-4.59c-.29-1.79-.47-3.59-.61-5.39-.07-1-.14-2-.17-3.06,0-.05-.15,0-.17,0l-3.12.5s-.3.08-.23.16c1,1.11.79,3.35.7,4.66-.23,3.24-1.06,7.17-4,9.11a4.44,4.44,0,0,1-2.52.88,4.53,4.53,0,0,1-3.45-2.39c-1.32-2.39.13-4.69,1.46-6.73a42.94,42.94,0,0,1,3.78-4.93c.06-.07-.05-.08-.1-.08-1.21,0-2.43.14-3.63.27a16.23,16.23,0,0,0-4.64.89C304.22,521.89,304.47,522,304.64,521.89Z"></path><path class="cls-3" d="M152.63,459.15c-2.47-5.89-8.69-9.69-11.38-11-1.46-.72-3.26-1,.58,1.49,4.23,2.77,5.36,5.88,3.94,4.78-2.07-1.6-7.44-1.7-9.39.67s-2.73,7.6,1.83,11.62,9.9,3.93,11.56,3.16C150.73,469.41,156,467.23,152.63,459.15Zm-3.9,6.89c-3.61,3.78-8.59.55-9.65-.73s-3.36-5.92,1-8.56a7.28,7.28,0,0,1,8.38,1.1S152.26,462.35,148.73,466Z"></path><path class="cls-3" d="M152.83,459.09a24.72,24.72,0,0,0-12.4-11.48c-.26-.07-1-.31-1.1.09-.19.58,1.7,1.61,2,1.81a15.64,15.64,0,0,1,4.23,3.79c.07.11.7,1.06.58,1.13s-1.18-.7-1.35-.77a8.88,8.88,0,0,0-7.69.56c-2,1.35-2.67,4.23-2.42,6.5.68,6.16,8.42,10.81,14.32,9.52a6.74,6.74,0,0,0,3.71-2.41c2-2.57,1.24-6,.12-8.74-.07-.17-.48-.06-.41.11,1,2.49,1.76,5.52.3,8a6.29,6.29,0,0,1-3,2.51c-2.22.94-5.13.3-7.26-.57-3.29-1.34-6.43-4-7.24-7.59-.54-2.38-.06-5.69,2.12-7.15,2.4-1.62,5.94-1.25,8.3.15.24.15.62.38.84.06s-.33-1.13-.51-1.4a13.4,13.4,0,0,0-3-3,32.32,32.32,0,0,1-3.25-2.42c.23-.28,2.22.91,2.45,1a32.11,32.11,0,0,1,3.28,2.11,20.89,20.89,0,0,1,7,8.28C152.5,459.37,152.9,459.25,152.83,459.09Z"></path><path class="cls-3" d="M148.56,466a5.28,5.28,0,0,1-4.27,1.67,7.9,7.9,0,0,1-3.48-1.19,5.71,5.71,0,0,1-1.81-1.61,7.59,7.59,0,0,1-1.11-2.54,5.08,5.08,0,0,1,.29-3.37,5.59,5.59,0,0,1,3.75-2.78,7.33,7.33,0,0,1,4.74.64,4.72,4.72,0,0,1,1.85,1.45,8.23,8.23,0,0,1,1.37,3,5.13,5.13,0,0,1-1.33,4.72c-.17.19.22.24.34.11a5.3,5.3,0,0,0,1.5-4.32,7.93,7.93,0,0,0-1.28-3.37c-1.28-2-4-2.82-6.25-2.65-3,.22-5.79,2.56-5.53,5.75a6.62,6.62,0,0,0,2.75,4.93,8.52,8.52,0,0,0,4.18,1.52,5.91,5.91,0,0,0,4.63-1.86C149.08,465.91,148.68,465.86,148.56,466Z"></path><path class="cls-3" d="M363.26,509.36c-6.24-1.3-12.9,1.67-15.52,3.13-1.42.79-2.69,2.1,1.56.37,4.67-1.92,7.88-1.09,6.17-.54-2.5.79-5.63,5.16-4.78,8.11s4.71,6.57,10.61,5.09,8.85-5.93,9.16-7.73C370.64,516.75,371.84,511.16,363.26,509.36Zm3.47,7.12c1.06,5.12-4.42,7.39-6.07,7.54s-6.79-.6-6.48-5.69a7.28,7.28,0,0,1,5.65-6.28S365.69,511.48,366.73,516.48Z"></path><path class="cls-3" d="M363.33,509.22a21.42,21.42,0,0,0-11.33,1.2,29.67,29.67,0,0,0-3.92,1.72c-.51.27-1.5.68-1.78,1.24-.17.34-.07.44.3.48a3.68,3.68,0,0,0,1.35-.34c1.12-.38,2.2-.88,3.34-1.2.32-.09,4.3-1.05,4.42-.31a8.81,8.81,0,0,1-1.23.61,8,8,0,0,0-1.62,1.33c-1.86,2-3.27,4.91-2,7.53a8.39,8.39,0,0,0,6.16,4.4,13,13,0,0,0,9.48-2.65c1.7-1.25,3.54-3.1,4.09-5.22a6.67,6.67,0,0,0-.26-4.21c-1.19-2.76-4.23-4-7-4.57-.17,0-.49.22-.24.27,2.49.55,5.23,1.55,6.55,3.91a6.25,6.25,0,0,1,.64,3.94,7.89,7.89,0,0,1-2.26,4.09,13.47,13.47,0,0,1-9.13,4.27,8.36,8.36,0,0,1-7.47-4c-1.52-2.66-.16-5.72,1.83-7.75a6.47,6.47,0,0,1,1.84-1.36c.19-.09.75-.18.88-.41s.06-.41-.25-.54a5.65,5.65,0,0,0-2.8,0,22.46,22.46,0,0,0-4.52,1.38c-.13.05-1.81.66-1.82.48s.71-.61.84-.7a21.24,21.24,0,0,1,3.49-1.7,21.7,21.7,0,0,1,12.23-1.61C363.39,509.55,363.61,509.27,363.33,509.22Z"></path><path class="cls-3" d="M366.53,516.54c.59,3-1.25,5.49-3.92,6.73a6.23,6.23,0,0,1-5.35,0,4.72,4.72,0,0,1-2.59-2.69,6,6,0,0,1,.51-4.87c1.06-1.86,3.17-3.55,5.39-3.49,2.79.08,5.32,1.47,6,4.36,0,.18.45.07.41-.11-.63-2.83-3-4.3-5.77-4.52a6.71,6.71,0,0,0-5.62,2.62c-2.07,2.48-2.32,6.6.63,8.52a6.81,6.81,0,0,0,5.88.76,8.87,8.87,0,0,0,3.64-2.45,5.76,5.76,0,0,0,1.24-4.93C366.9,516.24,366.49,516.35,366.53,516.54Z"></path><path class="cls-3" d="M428.82,458.89l2.25-3.09,13.24,11.12,2.45-3.15s1.21-1.33,1.93-.82,0,1.85-.53,2.43-3.86,3.41-4.05,5.51C444.11,470.89,432.64,459.86,428.82,458.89Z"></path><path class="cls-3" d="M429,459l2.25-3.09-.33.06,11.59,9.72,1.66,1.4a.28.28,0,0,0,.33-.06l1.79-2.31c.22-.28.42-.58.65-.83.54-.59,2-1.35,1.81.08s-1.76,2.34-2.58,3.22a7.4,7.4,0,0,0-2.26,3.77l.4-.11c-2-1.95-4.11-3.83-6.24-5.66-1.66-1.43-3.35-2.83-5.12-4.11a13.14,13.14,0,0,0-4-2.27c-.18-.05-.49.2-.24.27a13.32,13.32,0,0,1,4.08,2.35c1.72,1.25,3.35,2.61,5,4,2.11,1.82,4.18,3.68,6.18,5.61.11.1.38.07.4-.11.25-1.92,2.05-3.54,3.38-4.82.62-.6,2.49-2.72,1-3.31-.87-.34-1.8.62-2.28,1.23-.76,1-1.5,1.93-2.25,2.89l.33-.06-11.59-9.73-1.66-1.39a.28.28,0,0,0-.33.06l-2.24,3.09C428.49,459,428.88,459.1,429,459Z"></path><path class="cls-3" d="M421.72,467l2.44-2.95L436.67,476l2.65-3s1.29-1.25,2-.7-.12,1.85-.68,2.39-4.07,3.16-4.39,5.25C436.22,479.93,425.48,468.2,421.72,467Z"></path><path class="cls-3" d="M421.89,467l2.44-3-.36,0,10.94,10.43,1.58,1.51a.28.28,0,0,0,.35,0l1.89-2.13c.25-.28.48-.59.75-.85l.38-.32c.35-.25,1.09-.76,1.45-.05.12.23,0,.6-.11.82-.48,1.23-1.86,2-2.78,2.92A7.34,7.34,0,0,0,436,480l.4-.11c-1.94-2.11-4-4.16-6-6.16-1.53-1.5-3.1-3-4.75-4.33a13.18,13.18,0,0,0-3.82-2.49c-.15-.05-.48.17-.24.25a13.28,13.28,0,0,1,3.88,2.58c1.7,1.41,3.29,2.92,4.86,4.46,2,1.91,3.85,3.86,5.69,5.87a.28.28,0,0,0,.4-.11c.37-1.91,2.27-3.41,3.68-4.6.64-.55,2.67-2.58,1.17-3.23-.84-.36-1.83.54-2.35,1.11-.82.91-1.62,1.83-2.42,2.74l.35,0-10.94-10.43-1.57-1.5a.28.28,0,0,0-.36,0l-2.44,2.95C421.39,467.13,421.78,467.16,421.89,467Z"></path><path class="cls-3" d="M219.19,506.72c-4,.77-5.08-1.62-8.68-3.62-3.77-2.09-9.11-.25-10.77,3.29-1.58,3.35.46,8.31,4.18,10.09a14.65,14.65,0,0,0,7.6,1l-.84,1.76s2.72,2.44,2.89.89C214,516.5,219.19,506.72,219.19,506.72Zm-16.71,6.09c-1.1-2.4.56-5.52,3.7-7s6.59-.65,7.69,1.75-.56,5.53-3.7,7S203.58,515.22,202.48,512.81Z"></path><path class="cls-3" d="M219.23,506.63a6.6,6.6,0,0,1-5.35-1.45,16.17,16.17,0,0,0-4.5-2.71,8.88,8.88,0,0,0-7.76,1.46,6.57,6.57,0,0,0-2.17,7.67,8.94,8.94,0,0,0,7.31,5.87,14.62,14.62,0,0,0,4.33.11c.54-.07.23-.1,0,.31l-.64,1.36a0,0,0,0,0,0,0c.63.56,2,1.82,2.91,1.32.53-.28.47-1.18.6-1.7a26.8,26.8,0,0,1,1-2.86,89.87,89.87,0,0,1,4.41-9.37c0-.06-.35,0-.4.07a91.37,91.37,0,0,0-4.34,9.17,26.88,26.88,0,0,0-1,2.9c-.09.34-.18.69-.24,1-.1.62-.32.72-.93.42-.28-.15-1.52-.77-1.59-1.14a4.18,4.18,0,0,1,.42-.85l.42-.88c0-.08-.15,0-.16,0a13.26,13.26,0,0,1-7.16-.84,8.59,8.59,0,0,1-4.86-6.24,6.36,6.36,0,0,1,3.12-6.83,8.24,8.24,0,0,1,4.8-1.13,8.75,8.75,0,0,1,4.23,1.69,25.49,25.49,0,0,0,3.67,2.45,6.38,6.38,0,0,0,3.79.33C219.32,506.77,219.51,506.58,219.23,506.63Z"></path><path class="cls-3" d="M202.69,512.76a4.9,4.9,0,0,1,1.36-5.32,7.17,7.17,0,0,1,7.08-1.93,4,4,0,0,1,2.8,4.53,6.81,6.81,0,0,1-4.51,4.75c-2.35.83-5.54.44-6.73-2-.05-.11-.45,0-.41.11,1.06,2.21,3.75,2.79,6,2.37a7.8,7.8,0,0,0,5.71-4.15,4.07,4.07,0,0,0-2-5.55,7.59,7.59,0,0,0-6.87.79c-2.13,1.32-3.94,4-2.83,6.54C202.32,513,202.72,512.84,202.69,512.76Z"></path><path class="cls-3" d="M280.7,520.51c-3.42,2.14-5.32.31-9.4-.26-4.27-.6-8.59,3-8.87,6.93-.27,3.7,3.41,7.6,7.52,7.92a14.62,14.62,0,0,0,7.45-1.82l-.15,2s3.41,1.29,3-.22C279.34,531.51,280.7,520.51,280.7,520.51ZM267.3,532.2c-1.89-1.86-1.46-5.36.95-7.83s5.92-3,7.81-1.12,1.46,5.35-1,7.82S269.19,534.05,267.3,532.2Z"></path><path class="cls-3" d="M280.55,520.5A6.44,6.44,0,0,1,275,521a18.08,18.08,0,0,0-4.54-.89,8.78,8.78,0,0,0-6.55,3.16,6.46,6.46,0,0,0-.63,7.89,8.69,8.69,0,0,0,7.13,4.06,14.33,14.33,0,0,0,7.1-1.93l-.36.06-.15,1.94v0a5.53,5.53,0,0,0,2.73.49c1.15-.23.55-1.38.46-2.22a54.09,54.09,0,0,1,.37-10.33c.09-.93.18-1.86.3-2.79,0,0-.4,0-.41.11-.29,2.29-.49,4.59-.63,6.89a50.28,50.28,0,0,0-.11,5.21,14.45,14.45,0,0,0,.2,2c0,.23.2.57.1.78-.17.42-.86.23-1.22.16s-1.24-.19-1.38-.52a3.25,3.25,0,0,1,.08-1l.06-.8c0-.08-.33,0-.36,0a12.55,12.55,0,0,1-7.51,1.7,8.66,8.66,0,0,1-6.49-4.82,6.55,6.55,0,0,1,1.53-7.44,8.1,8.1,0,0,1,4.37-2.37,11.51,11.51,0,0,1,4.83.59,11.78,11.78,0,0,0,3.72.65,6.82,6.82,0,0,0,3.17-1.08C281,520.41,280.62,520.46,280.55,520.5Z"></path><path class="cls-3" d="M267.49,532.13c-1.52-1.54-1.39-3.91-.5-5.73a7.26,7.26,0,0,1,5.81-4.19,3.94,3.94,0,0,1,4.17,3.34,6.93,6.93,0,0,1-2.57,6c-1.89,1.62-4.91,2.44-6.91.55-.07-.07-.44.08-.39.13,1.65,1.57,4.18,1.31,6.07.35a7.67,7.67,0,0,0,4.26-6.09,4.06,4.06,0,0,0-3.7-4.45,7.47,7.47,0,0,0-6.2,2.92c-1.61,2-2.44,5.24-.43,7.27C267.17,532.33,267.55,532.18,267.49,532.13Z"></path><path class="cls-3" d="M422,472.52c-.94,3.92-3.58,4-6.9,6.39s-4,8.18-1.49,11.17c2.4,2.82,7.76,3,10.92.39a14.63,14.63,0,0,0,4-6.51l1.25,1.5s3.35-1.46,2-2.27C428.74,481.34,422,472.52,422,472.52Zm-1.4,17.73c-2.65,0-4.79-2.8-4.79-6.26s2.14-6.26,4.79-6.26,4.79,2.8,4.79,6.26S423.25,490.25,420.61,490.25Z"></path><path class="cls-3" d="M421.81,472.54a6.1,6.1,0,0,1-2.74,3.81c-1.31.82-2.72,1.47-4,2.39a8.34,8.34,0,0,0-3.22,7.36,6.56,6.56,0,0,0,4.67,6,8.94,8.94,0,0,0,8.24-1.64,13.73,13.73,0,0,0,4-6.53l-.4.11,1.25,1.5a.26.26,0,0,0,.28,0,5.14,5.14,0,0,0,2.29-1.55.61.61,0,0,0-.16-.91c-.46-.39-1-.69-1.43-1.09a59.29,59.29,0,0,1-6.8-7.53c-.55-.68-1.09-1.37-1.63-2.07-.11-.14-.5,0-.37.18,1.74,2.28,3.57,4.51,5.49,6.64a28.34,28.34,0,0,0,3.77,3.66c.22.16.78.4.85.68s-.42.72-.66.9a8.17,8.17,0,0,1-1.53.85l.28,0-1.25-1.5a.25.25,0,0,0-.4.11,14.05,14.05,0,0,1-3,5.5,8.36,8.36,0,0,1-8.89,2.25,6.48,6.48,0,0,1-4.18-6.61,8.44,8.44,0,0,1,1.13-4,9.29,9.29,0,0,1,3.58-3.2,23,23,0,0,0,3.32-2.05,6.25,6.25,0,0,0,1.92-3.33C422.27,472.31,421.85,472.36,421.81,472.54Z"></path><path class="cls-3" d="M420.68,490.1c-2.22,0-3.76-2-4.34-3.94a7.5,7.5,0,0,1,1.2-6.73,3.79,3.79,0,0,1,5.43-.65,7,7,0,0,1,2.17,6.18c-.29,2.39-1.84,5.09-4.51,5.14-.23,0-.32.3,0,.3,2.32,0,4-1.94,4.65-4a7.59,7.59,0,0,0-1.52-7.44,4.24,4.24,0,0,0-5.58-.5,7.14,7.14,0,0,0-2.47,6.57c.3,2.56,2,5.34,4.87,5.39C420.73,490.4,421,490.11,420.68,490.1Z"></path><path class="cls-3" d="M406.34,502a12.82,12.82,0,0,1-2.59,1c-.62.14-2,.44-2.43-.19-.83-1.17.39-2.69,1.17-3.52a14.84,14.84,0,0,1,4.1-2.91c6.88-3.57,4.53-5.1,3.91-4.59a12.87,12.87,0,0,1-2.5,2.14,4.33,4.33,0,0,0-1.29-5.81c-2.6-1.4-6.81.52-9.37,4.72,0,0-3.18,5.09-.49,9.94,1.49,2.68,5.51,3.31,9.53,1.6,4.77-2,5.69-8.63,4.63-8.05S410.75,500,406.34,502Zm-7.88-7.35c.63-2.68,3-4.65,5.38-4.14,2,.43,1.58,2.7.76,4.25s-5.54,5.12-5.54,5.12A7.85,7.85,0,0,1,398.46,494.67Z"></path><path class="cls-3" d="M406.26,501.94a9,9,0,0,1-3.81,1.12c-1.86,0-1.1-2.1-.43-3,1.73-2.32,4.4-3.31,6.76-4.81,1-.61,2.38-1.46,2.75-2.63a.74.74,0,0,0-.5-1,.91.91,0,0,0-.63.12,4.6,4.6,0,0,0-.81.78,8.16,8.16,0,0,1-1.72,1.37l.32.06a4.41,4.41,0,0,0-.66-5.35,4,4,0,0,0-3.66-.93c-3.93.7-7,4.45-7.94,8.17-.65,2.49-.53,5.63,1.19,7.7,1.56,1.89,4.32,2.16,6.58,1.76a9.26,9.26,0,0,0,5.93-3.31,9.16,9.16,0,0,0,2-4.75c0-.3.08-.86-.26-1s-.72.25-.87.5a22,22,0,0,0-.8,2.09,6.82,6.82,0,0,1-3.41,3.16c-.26.12,0,.25.16.16a7.26,7.26,0,0,0,3.72-3.5c.23-.52.36-1.08.57-1.6.14-.34.36-.84.47-.26a6.57,6.57,0,0,1-1,3.72,8.17,8.17,0,0,1-4.16,3.93c-2.41,1-5.6,1.33-7.81-.35-1.94-1.48-2.44-4.42-2.18-6.7a11.55,11.55,0,0,1,5.82-8.78c1.5-.8,3.7-1.28,5.07-.05a4.31,4.31,0,0,1,.88,5.4c-.09.17.25.09.32.06a12.34,12.34,0,0,0,2.28-1.93c.21-.2.32-.35.58-.14.68.55-.43,1.64-.79,2-1.8,1.66-4.19,2.46-6.16,3.88-1.22.87-3.76,2.91-3.12,4.71s4.41.13,5.5-.37C406.68,502,406.44,501.86,406.26,501.94Z"></path><path class="cls-3" d="M398.67,494.64a5.4,5.4,0,0,1,3.21-3.88,3,3,0,0,1,2.43.1,1.78,1.78,0,0,1,.77,1.71c-.13,2.55-2.4,4.23-4.2,5.72-.65.54-1.31,1.07-2,1.58l.36,0a7.75,7.75,0,0,1-.59-5.21c0-.14-.38-.08-.41.06a7.89,7.89,0,0,0,.59,5.26c.07.12.29,0,.37,0a30.6,30.6,0,0,0,5.09-4.48,4.69,4.69,0,0,0,1.14-3.61c-.3-1.58-2.25-1.7-3.51-1.32a5.71,5.71,0,0,0-3.68,4.18C398.22,494.84,398.63,494.78,398.67,494.64Z"></path><path class="cls-3" d="M371.72,509.93a13.41,13.41,0,0,1,2.37,5.27c.88,3.56.91,5.17,2.19,4.57a8.58,8.58,0,0,0,2.34-1.37c.36-.4.79-1,0-1.55s-2-2.56-2.95-5.94a27.71,27.71,0,0,0-1.95-5.32,4.51,4.51,0,0,1-1.79.94c-1.34.46-2.68.43-2.62,1.16S370.68,508.63,371.72,509.93Z"></path><path class="cls-3" d="M371.54,510a12.52,12.52,0,0,1,2.24,4.85c.35,1.29.56,2.63,1,3.92.14.45.33,1.09.86,1.23a1.18,1.18,0,0,0,.64-.07,11.2,11.2,0,0,0,1.73-.87c.54-.32,1.43-.93,1.31-1.68-.07-.42-.45-.63-.74-.9a5.92,5.92,0,0,1-.75-1A15.53,15.53,0,0,1,376.2,512a38.85,38.85,0,0,0-2.29-6.47c-.07-.14-.29-.05-.36,0a5.06,5.06,0,0,1-1.9.94c-.68.21-1.77.22-2.32.74a.7.7,0,0,0,.07,1.07c.65.67,1.51,1,2.14,1.76.12.15.51,0,.37-.19a8.43,8.43,0,0,0-1.74-1.46c-.21-.14-.59-.36-.63-.64-.08-.55.79-.63,1.18-.72a6.58,6.58,0,0,0,3.18-1.36l-.36,0c1.77,3.36,1.89,7.53,4.24,10.59a5.68,5.68,0,0,0,.53.57c.19.19.42.31.49.6a.94.94,0,0,1-.35.89,4.85,4.85,0,0,1-1.27.82c-.33.17-1,.67-1.39.58-.59-.14-.74-1.33-.85-1.79-.3-1.26-.54-2.54-.92-3.78a12.25,12.25,0,0,0-2.11-4.32C371.78,509.69,371.39,509.86,371.54,510Z"></path><path class="cls-3" d="M369.62,505.59a8.66,8.66,0,0,0,4.71-3c1.73-2.4,2-3.35,3.23-3.71s-3.72-1.07-5,2S370,505.47,369.62,505.59Z"></path><path class="cls-3" d="M369.64,505.68a8.76,8.76,0,0,0,3.75-1.91,14,14,0,0,0,2.29-2.9,5.15,5.15,0,0,1,1.57-1.8c.12-.07.88-.24.63-.5s-.94-.18-1.24-.17a5,5,0,0,0-3.93,1.8,10.24,10.24,0,0,0-.86,1.76c-.31.64-.64,1.27-1,1.89a11.29,11.29,0,0,1-.79,1.16c-.13.16-.33.44-.52.51s0,.21.15.14a2.3,2.3,0,0,0,.93-.9,16.47,16.47,0,0,0,1.43-2.43,7.7,7.7,0,0,1,1.6-2.74,4.29,4.29,0,0,1,2-.89,4.21,4.21,0,0,1,1.62,0c.07,0,.21,0,.24.1s.06,0-.09,0a2.66,2.66,0,0,0-.39.16,4.06,4.06,0,0,0-1.34,1.33,33.17,33.17,0,0,1-1.94,2.75,8,8,0,0,1-4.18,2.48C369.35,505.56,369.39,505.73,369.64,505.68Z"></path><path class="cls-3" d="M166.53,471.74a8.57,8.57,0,0,0,4.65,3.13c2.89.65,3.87.56,4.68,1.51s-.48-3.83-3.82-3.83S166.79,472.05,166.53,471.74Z"></path><path class="cls-3" d="M166.32,471.79a8.5,8.5,0,0,0,3.35,2.71,16.17,16.17,0,0,0,3.62.92,4.4,4.4,0,0,1,2.09.75c.19.16.56.69.87.3s-.1-.79-.2-1a4.66,4.66,0,0,0-3.23-2.92,15.1,15.1,0,0,0-2-.09,17.89,17.89,0,0,1-2.07-.19,7.82,7.82,0,0,1-1.36-.28,1.44,1.44,0,0,1-.65-.3c-.07-.08-.45.07-.39.14a2.59,2.59,0,0,0,1.3.47,17.64,17.64,0,0,0,2.91.33,6.22,6.22,0,0,1,3.08.51,5.37,5.37,0,0,1,2.23,3.05,3.28,3.28,0,0,0,0,.34l.31-.09a.05.05,0,0,1,0,0s0,0-.07-.06a1.19,1.19,0,0,0-.33-.34,3.77,3.77,0,0,0-1.69-.66,29.94,29.94,0,0,1-3.38-.74,8.23,8.23,0,0,1-3.94-2.92C166.66,471.58,166.29,471.74,166.32,471.79Z"></path><path class="cls-3" d="M329.29,519.11a3.67,3.67,0,0,1,3.32.78c1.56,1.35,2.8,1.22,3.79.41s-1.72-3.44-6.81-2.67-6.77,4-6.61,5.8,2.27,3.26,7.1,2.19,4.74,1.72,4.57,2.54a4.5,4.5,0,0,1-4.09,2.83c-2.15,0-2.15-2.35-4.22-2.84s-2.38,1.24-2,2,1.56,2.82,5.9,2.47,7.64-2.43,7.87-5.76-3.29-4.52-6.78-3.28-5.13-1-4.76-2.21S327.52,519.55,329.29,519.11Z"></path><path class="cls-3" d="M329.32,519.23a3.33,3.33,0,0,1,2.38.26c.94.47,1.58,1.33,2.67,1.51.72.12,2.54-.21,2.44-1.25s-1.49-1.61-2.26-1.89a10.49,10.49,0,0,0-5.85-.19c-2.57.57-5.8,2.42-5.94,5.41-.14,3.18,4.2,3.2,6.34,2.85,1.46-.24,3.94-1.09,5,.44a2.3,2.3,0,0,1,0,2.46,4.51,4.51,0,0,1-2.75,1.94,2.54,2.54,0,0,1-2.71-1c-.9-1.08-2.1-2.3-3.67-1.75a1.57,1.57,0,0,0-.79,2.3,4.49,4.49,0,0,0,2.12,1.92,11.2,11.2,0,0,0,10.26-1.92,5.14,5.14,0,0,0,1.72-4.12,3.5,3.5,0,0,0-2.94-3.1,6.89,6.89,0,0,0-2.6,0,18.15,18.15,0,0,1-3.39.73c-1.44,0-3.11-1.16-2.5-2.76a3.07,3.07,0,0,1,2.4-1.83c.25-.07.19-.31-.06-.24-1.32.35-2.56,1-2.87,2.46a2.22,2.22,0,0,0,1.44,2.32c1.66.75,3.21-.11,4.85-.41s4.07,0,4.95,1.77a4.5,4.5,0,0,1-1,4.75,8.87,8.87,0,0,1-5.21,2.49c-1.81.29-3.92.34-5.51-.73a3.38,3.38,0,0,1-1.51-2c-.13-1.08.81-1.56,1.78-1.33a3.68,3.68,0,0,1,2,1.51A3.06,3.06,0,0,0,331.7,531c1.79-.5,4.05-2.5,2.95-4.53a2.73,2.73,0,0,0-2.44-1.18c-2,0-3.95.81-6,.55-1.23-.16-2.62-.74-2.95-2.06a3.78,3.78,0,0,1,.79-3,7.65,7.65,0,0,1,4.49-2.78,9.57,9.57,0,0,1,6.25.35c.63.29,2.31,1.35,1.27,2.08s-2.31.15-3.26-.6a4.08,4.08,0,0,0-2.35-.93,3.63,3.63,0,0,0-1.18.13C329,519.06,329.07,519.3,329.32,519.23Z"></path><path class="cls-3" d="M300.41,521.15l-8.27.29c-1.34,0-6.33.93-7.95,5.39s2.71,7.75,2.71,7.75-4.38,1.5-4.21,3.93,2.92,3.57,6.08,3.61,6.81-.49,9.77-5.51S300.41,521.15,300.41,521.15ZM296.48,533s-.18,7-6,7.58c-4.68.49-3.65-3.32-3.65-3.32s.48-3.06,6.65-3.72c2.5-.26-2.43-1.23-2.43-1.23s-3.79-.56-3.41-5.15,5-4.3,5-4.3a3.93,3.93,0,0,1,3.93,4.22Z"></path><path class="cls-3" d="M300.49,521l-5.9.21a17.29,17.29,0,0,0-5.06.61,8.56,8.56,0,0,0-5.44,4.72c-1.07,2.63-.1,5.34,1.79,7.31a2.84,2.84,0,0,0,.69.65c.2.1.34,0,0,.05A7.45,7.45,0,0,0,284,536a2.91,2.91,0,0,0,.4,5.34c2.25,1.22,5.42,1.19,7.86.56a10.75,10.75,0,0,0,6.65-5.66c1.48-2.82,1.76-6.24,1.84-9.37a42.3,42.3,0,0,0-.18-5.74c0-.13-.42,0-.41.11.45,4.32.44,9.1-.91,13.26-1.05,3.19-3.5,6.19-6.82,7.14-2.61.75-7.05.87-8.91-1.46-2.09-2.6,1.22-4.73,3.42-5.49,0,0,.19-.1.12-.16-3.19-2.45-4.11-6.87-1.33-10,2.61-3,6.3-2.94,9.89-3.06l4.67-.16C300.47,521.26,300.77,521,300.49,521Z"></path><path class="cls-3" d="M296.27,533.06a9.82,9.82,0,0,1-1,3.92,6.29,6.29,0,0,1-2.45,2.8,5.39,5.39,0,0,1-4.75.43,2.56,2.56,0,0,1-1-3c.47-1.73,2.46-2.65,4-3.08.89-.25,1.8-.29,2.7-.48.14,0,.53-.07.6-.24.16-.41-.91-.62-1.16-.69a13.85,13.85,0,0,1-3.36-1c-2.36-1.41-2.69-5.18-1-7.24a4.53,4.53,0,0,1,3.84-1.47c2.38.18,3.69,2,3.69,4.32,0,1.92-.05,3.84-.08,5.76,0,.12.41,0,.41-.11,0-1.9.06-3.79.08-5.69,0-2.21-1.08-4-3.32-4.42a5.78,5.78,0,0,0-3.24.33c-2.53,1-3.42,4.22-2.45,6.67a4.34,4.34,0,0,0,3.23,2.6,13,13,0,0,1,2.62.69c.15.07.4.1.27.26s-1,.14-1.26.17a13.49,13.49,0,0,0-2.52.64c-1.4.52-3,1.48-3.46,3a2.72,2.72,0,0,0,.89,3,5.3,5.3,0,0,0,4.24.21,6.22,6.22,0,0,0,3.19-2.26,9.49,9.49,0,0,0,1.73-5.2C296.68,532.85,296.27,532.93,296.27,533.06Z"></path><path class="cls-3" d="M248.5,516.76a7.94,7.94,0,0,0-1.27-.55,23,23,0,0,1,2.06-1.4c1.84-1,.08-1.27-1.14-1.2a8.88,8.88,0,0,0-4.89,1.67h0s-3.76.44-5.35-.72c0,0,.18,1.76,3.74,2.27a12.94,12.94,0,0,0-2.5,5.54c-1.68,7.7,3.84,8,5.19,8.12,3.48.24,5.69-1.81,5.75-2.38s-.39-.58-1.13,0-3.83,1.74-5.51.63-1.64-3-.79-6.82a9.57,9.57,0,0,1,3.1-4.5,15.06,15.06,0,0,1,2.31.73s3.87,1.55,5-.27A12,12,0,0,1,248.5,516.76Z"></path><path class="cls-3" d="M248.66,516.65a10.17,10.17,0,0,0-1.31-.57v.21c.67-.5,1.35-1,2.06-1.4.28-.18,1.05-.54.84-1s-1.25-.42-1.63-.43a10.61,10.61,0,0,0-1.78.16,9.19,9.19,0,0,0-2.64.91c-.49.26-.74.61-1.28.65-1.56.12-3.51.18-4.86-.73-.11-.07-.38,0-.36.17.19,1.61,2.65,2.15,3.87,2.34l-.1-.18a13.87,13.87,0,0,0-2.71,6.52,7.16,7.16,0,0,0,.75,5.1c1.24,1.84,3.69,2.35,5.78,2.23a6.73,6.73,0,0,0,4.72-2c.24-.29.49-.8,0-1s-1.33.56-1.76.78c-1.89.93-5,1.27-5.81-1.2a6.83,6.83,0,0,1,0-3.18,9.91,9.91,0,0,1,1.33-4.11,8.17,8.17,0,0,1,1.73-2c.4-.3.6-.19,1.08-.05l.81.27c.43.16.85.33,1.29.46,1.42.42,3.55.81,4.52-.64.06-.08,0-.14-.11-.15a10.36,10.36,0,0,1-4.45-1.09c-.14-.07-.51.12-.32.22A10.68,10.68,0,0,0,253,518l-.12-.15c-.93,1.38-3.28.68-4.55.2-.4-.15-1-.37-1.45-.51-.3-.09-.8-.34-1.11-.26s-.7.6-.95.87a9.4,9.4,0,0,0-2.08,3,14.14,14.14,0,0,0-.73,3.34c-.19,1.46-.2,3.12,1,4.14s3.27.76,4.74.23a6.93,6.93,0,0,0,1-.45c.19-.11,1.12-.74,1.14-.24s-1.27,1.21-1.64,1.41c-2.14,1.12-5.54,1.16-7.52-.46a5.44,5.44,0,0,1-1.66-4.68,13.53,13.53,0,0,1,2.76-7.57c.08-.1,0-.17-.1-.19-1.13-.18-3.43-.69-3.6-2.18l-.37.16a6.7,6.7,0,0,0,3.73.83,3.9,3.9,0,0,0,2.17-.32,8.74,8.74,0,0,1,4.68-1.44c.31,0,1.07-.07,1.33.16.43.38-.27.69-.57.86-.69.42-1.35.89-2,1.37-.08.06-.1.16,0,.21a9.5,9.5,0,0,1,1.23.53C248.48,517,248.85,516.76,248.66,516.65Z"></path><path class="cls-3" d="M180,486.09a7.58,7.58,0,0,0-.9-1.06,23,23,0,0,1,2.47-.36c2.1-.11.62-1.11-.5-1.57a8.89,8.89,0,0,0-5.14-.63h0s-3.58-1.25-4.49-3c0,0-.61,1.65,2.37,3.67a13,13,0,0,0-4.67,3.89c-4.87,6.19,0,8.91,1.13,9.58,3,1.72,5.91.85,6.21.36s-.1-.69-1-.49-4.21-.1-5.24-1.84-.15-3.46,2.26-6.48a9.58,9.58,0,0,1,4.76-2.7,15.18,15.18,0,0,1,1.76,1.67s2.8,3.08,4.58,1.92A12.24,12.24,0,0,1,180,486.09Z"></path><path class="cls-3" d="M180.16,486a8.18,8.18,0,0,0-.9-1.05l-.22.17c.9-.17,1.79-.27,2.7-.38.27,0,.9-.08,1-.41.35-.84-2.24-1.61-2.77-1.76a9.11,9.11,0,0,0-2.75-.35,3.54,3.54,0,0,1-1.62,0c-1.44-.58-3.21-1.37-4-2.78-.06-.11-.37,0-.41.09-.42,1.22.91,2.57,1.74,3.23.13.11.39.21.44.37s0,.05-.13.19a6.87,6.87,0,0,1-.83.48,13.37,13.37,0,0,0-1.53,1.16,15.52,15.52,0,0,0-2.89,3.42c-1,1.64-1.68,3.67-.83,5.53a6.3,6.3,0,0,0,2.57,2.62,7.65,7.65,0,0,0,5.67,1.06c.4-.1,1.1-.26,1.29-.69.32-.77-.93-.52-1.28-.48-1.87.24-4.63-.41-5.3-2.42a3.51,3.51,0,0,1,.38-2.68,13.13,13.13,0,0,1,2.68-3.68,8.35,8.35,0,0,1,2.51-1.52,3.92,3.92,0,0,1,1.29-.46c.37,0,.78.54,1,.78s.77.83,1.19,1.22c1.13,1.06,2.89,2.38,4.48,1.46.05,0,.12-.09,0-.13a10.8,10.8,0,0,1-3.57-3c-.07-.1-.46,0-.38.15a9.22,9.22,0,0,0,2.29,2.16c.31.22.63.43,1,.62s.5.18,0,.25c-1.47.24-2.95-1.11-3.89-2.11-.13-.14-.26-.29-.4-.42-.33-.34-.92-1.12-1.36-1.26s-1.79.52-2.28.74a10.67,10.67,0,0,0-4.72,4.63c-.77,1.31-1.27,2.87-.25,4.2s2.85,1.66,4.34,1.69a5.29,5.29,0,0,0,.8-.05c.26,0,1.08,0,.95.36-.06.18-.33.26-.48.32a6.19,6.19,0,0,1-4-.14,8.34,8.34,0,0,1-3.34-2.14c-3.72-4.09,1.8-10.05,5.49-11.81,0,0,.13-.08.07-.12-1-.68-2.86-2.16-2.36-3.62l-.41.08a6.63,6.63,0,0,0,3,2.35,7.77,7.77,0,0,0,1.36.59,3.53,3.53,0,0,0,1.25,0,8.8,8.8,0,0,1,4.61,1,2.32,2.32,0,0,1,.87.62c.21.37-.3.43-.64.52h-.12c-.8.15-1.61.2-2.4.35,0,0-.31.09-.22.18a9.06,9.06,0,0,1,.9,1.05C179.85,486.26,180.25,486.13,180.16,486Z"></path><path class="cls-3" d="M227.25,512.52s3.59-.41,5.27,1.64,2,2.37,2.47,2.15a1.22,1.22,0,0,0,.38-2.11,11.8,11.8,0,0,0-8.14-3.25c-4,0-8.88,1.18-9.68,6-.69,4.23,2.68,8.41,7.3,8.85,4.22.41,6.28-.32,6.9-.84.31-.28.36-.92-1-.55-1.85.5-6.86.36-8.64-3.25S221.91,513,227.25,512.52Z"></path><path class="cls-3" d="M227.21,512.61a7.57,7.57,0,0,1,3,.28c1.71.51,2.42,1.83,3.59,3,.39.4.75.68,1.31.46a1.33,1.33,0,0,0,.41-2.32,11.67,11.67,0,0,0-7.51-3.18,13.34,13.34,0,0,0-7.64,1.64,6.63,6.63,0,0,0-2.91,7.08,8.25,8.25,0,0,0,6.12,6.1,16.25,16.25,0,0,0,5,.26,8.22,8.22,0,0,0,2.76-.63c.31-.15,1.1-.55.72-1-.2-.25-.75-.13-1-.08a12,12,0,0,1-1.68.26c-3.27.13-6.62-1.34-7.51-4.73a5.83,5.83,0,0,1,.42-4.22,6.08,6.08,0,0,1,4.94-2.95c.19,0,.36-.22.07-.19a6.65,6.65,0,0,0-5.46,3.28,6.24,6.24,0,0,0,.52,6.2c1.32,1.91,3.72,2.69,5.95,2.8a12.24,12.24,0,0,0,2.34-.18c.26,0,1.12-.25,1.09.15,0,.21-.19.3-.34.41a3.71,3.71,0,0,1-1.16.44,15.33,15.33,0,0,1-4.73.22,8.68,8.68,0,0,1-4.61-1.62,7.6,7.6,0,0,1-3-7.7c1.49-6.34,10.82-6.39,15.32-3.68.78.47,2.56,1.5,2.44,2.57,0,.34-.4,1-.82,1-.16,0-.33-.2-.44-.29a13.82,13.82,0,0,1-1.42-1.63,6.34,6.34,0,0,0-5.65-1.92C227.1,512.44,226.93,512.64,227.21,512.61Z"></path><path class="cls-3" d="M198.1,502.43c1.18-1.38,1.87-3.89-1.46-6.16s-11.15-4.66-11.6-5.88a16.11,16.11,0,0,1-6.24,11.19,2.92,2.92,0,0,0,3.12,1.58,5.78,5.78,0,0,0,2.43-1.74,1.35,1.35,0,0,1,2,.93c.49,1.77,4.14,10.22,9.29,8.68,0,0-3.53-1.7-4.79-6.93C190.88,504.1,196.32,504.52,198.1,502.43Zm-12.25-2.77c-.28-1.68,1.71-3.41,4.45-3.86s5.17.54,5.45,2.22-1.71,3.41-4.45,3.87S186.12,501.34,185.85,499.66Z"></path><path class="cls-3" d="M198.27,502.47a3.7,3.7,0,0,0,.6-4.14c-.93-1.81-3-2.81-4.74-3.65-1.91-.91-3.89-1.69-5.83-2.55a22,22,0,0,1-2.18-1.07,5.44,5.44,0,0,1-.73-.53c-.09-.07-.11-.23-.23-.26a.3.3,0,0,0-.33.14c-.31,1.21-.38,2.44-.79,3.65a15.92,15.92,0,0,1-5.37,7.45s-.1.08-.08.13a3.07,3.07,0,0,0,3,1.69,4,4,0,0,0,2.21-1.15c.54-.48.9-1.19,1.77-.68.57.32.72,1.33.95,1.92s.62,1.41,1,2.09a14.57,14.57,0,0,0,3.3,4.36,5.25,5.25,0,0,0,4.89,1.28c.07,0,.28-.15.13-.22-2.55-1.26-4.08-4.28-4.74-6.89l-.28.18c2.35.18,5.74.12,7.46-1.75.17-.18-.23-.19-.34-.08-1.58,1.73-4.78,1.74-7,1.58-.08,0-.31,0-.28.18.67,2.66,2.23,5.71,4.83,7l.13-.22c-3,.82-5.39-1.79-6.87-4.08a20.66,20.66,0,0,1-1.74-3.33c-.29-.7-.43-1.81-1.12-2.22a1.73,1.73,0,0,0-1.69.06c-.34.23-.6.64-.93.91a2.64,2.64,0,0,1-3.43.29c-.21-.17-.81-.65-.82-.95,0-.12.46-.4.59-.5a15.21,15.21,0,0,0,1.17-1.1,15.79,15.79,0,0,0,2.84-4,16.77,16.77,0,0,0,1.31-3.76c.14-.6.14-1.25.3-1.84l-.33.14a4,4,0,0,0,.62.61,13.43,13.43,0,0,0,1.81.93c1.73.8,3.5,1.5,5.24,2.28s3.83,1.66,5.17,3.13a3.6,3.6,0,0,1,.17,4.93C197.78,502.58,198.17,502.59,198.27,502.47Z"></path><path class="cls-3" d="M186.05,499.6c-.22-1.58,1.36-2.72,2.65-3.24a6.73,6.73,0,0,1,5.49,0,2.17,2.17,0,0,1,.92,3.29,6.12,6.12,0,0,1-4.75,2.17c-1.57.07-4-.4-4.31-2.26,0-.15-.44-.05-.41.11.34,1.77,2.5,2.36,4,2.41a7.28,7.28,0,0,0,5.5-2,2.33,2.33,0,0,0-.26-3.66c-1.6-1.15-4-1.07-5.76-.51-1.59.5-3.79,1.8-3.52,3.77C185.66,499.87,186.07,499.77,186.05,499.6Z"></path><path class="cls-3" d="M234.64,511a1.89,1.89,0,0,0,2.66-.78c.91-1.76-1.47-2.43-2.26-2.21S233.79,510.27,234.64,511Z"></path><path class="cls-3" d="M234.45,511a2.39,2.39,0,0,0,1.53.25,2,2,0,0,0,1.19-.64,2,2,0,0,0,.54-1.3c0-.78-.8-1.23-1.46-1.41a2.51,2.51,0,0,0-1-.08,1.13,1.13,0,0,0-.86.53,2.61,2.61,0,0,0-.39,1.39,1.56,1.56,0,0,0,.47,1.26c.09.07.46-.09.38-.15a2,2,0,0,1-.26-2.16,1.63,1.63,0,0,1,.25-.47,1,1,0,0,1,.14-.15l.07-.05s.06,0,0,0h.26a2.2,2.2,0,0,1,.44.05,1.89,1.89,0,0,1,1.48,1.07,1.39,1.39,0,0,1-.14,1.07,1.65,1.65,0,0,1-.89.87,1.89,1.89,0,0,1-1.38-.19.34.34,0,0,0-.26,0S234.38,511,234.45,511Z"></path><path class="cls-3" d="M186.3,483.77a1.89,1.89,0,0,0-.17-2.77c-1.5-1.27-2.7.89-2.66,1.71S185.44,484.44,186.3,483.77Z"></path><path class="cls-3" d="M186.49,483.77a2.21,2.21,0,0,0,.56-1.49,1.82,1.82,0,0,0-.65-1.29,1.66,1.66,0,0,0-1.19-.49,2.15,2.15,0,0,0-1.72,1.37,1.82,1.82,0,0,0-.22.88,1.13,1.13,0,0,0,.52.79,2.32,2.32,0,0,0,2.67.26c.07-.05,0-.12,0-.14a.41.41,0,0,0-.3.08,1.1,1.1,0,0,1-.87.12,2.76,2.76,0,0,1-1-.43,1.22,1.22,0,0,1-.54-.7,1.37,1.37,0,0,1,.13-.74c.2-.5.62-1.18,1.2-1.26a1.26,1.26,0,0,1,1,.39,1.73,1.73,0,0,1,.65,1.15,2,2,0,0,1-.52,1.5c-.07.08,0,.11.11.12A.36.36,0,0,0,186.49,483.77Z"></path><path class="cls-3" d="M384.41,501.38s2.47-2.65,5.08-2.19,3,.51,3.27,0a1.21,1.21,0,0,0-1.08-1.84,11.77,11.77,0,0,0-8.3,2.82c-3.05,2.62-6,6.68-3.46,10.84,2.23,3.67,7.51,4.65,11.31,2,3.47-2.44,4.56-4.33,4.69-5.13.06-.41-.32-.93-1.1.22-1.07,1.58-5,4.73-8.67,3.15S380.69,505.23,384.41,501.38Z"></path><path class="cls-3" d="M384.6,501.36a7.77,7.77,0,0,1,2.28-1.66,5.09,5.09,0,0,1,3.29-.28,9.88,9.88,0,0,0,1.71.22,1.13,1.13,0,0,0,1.07-.43,1.26,1.26,0,0,0-.88-1.89,10.91,10.91,0,0,0-6.52,1.32,13.38,13.38,0,0,0-6.41,7,6.64,6.64,0,0,0,2.89,7.77,8.47,8.47,0,0,0,7.1.74,12.11,12.11,0,0,0,3.69-2.22,13.18,13.18,0,0,0,2.68-2.75c.22-.34.9-1.29.54-1.72s-1.12.28-1.34.56c-2.23,2.92-6.25,4.8-9.58,2.49a5.8,5.8,0,0,1-2.51-3.9,6.43,6.43,0,0,1,2-5.26c.08-.09-.31,0-.37,0-1.8,1.92-2.77,4.58-1.48,7.05a6.27,6.27,0,0,0,5.85,3.32,9.2,9.2,0,0,0,5.71-2.84,8.2,8.2,0,0,0,.71-.85c.18-.23.56-.71.69-.26a.83.83,0,0,1-.08.43,5.85,5.85,0,0,1-1.34,2c-2.12,2.33-5,4.39-8.24,4.17a7.37,7.37,0,0,1-6.43-4.46c-1.26-3.12.44-6.24,2.57-8.48a12.15,12.15,0,0,1,8.36-4.05,2.87,2.87,0,0,1,1.74.27,1.19,1.19,0,0,1,.32,1.4c-.19.5-.68.36-1.14.3-.73-.09-1.45-.28-2.18-.34a6.76,6.76,0,0,0-5.06,2.32C384.14,501.48,384.53,501.44,384.6,501.36Z"></path><path class="cls-3" d="M389,495.38a1.89,1.89,0,0,0,1.51-2.32c-.45-1.93-2.7-.9-3.16-.21S387.92,495.41,389,495.38Z"></path><path class="cls-3" d="M389.05,495.52a2.51,2.51,0,0,0,1.24-.69,2,2,0,0,0,.16-2.46,1.75,1.75,0,0,0-2.15-.36,2.79,2.79,0,0,0-.91.57,1,1,0,0,0-.34.88,2.65,2.65,0,0,0,.63,1.38,1.72,1.72,0,0,0,1.31.69c.23,0,.32-.3,0-.29a1.38,1.38,0,0,1-.94-.54,2.62,2.62,0,0,1-.58-1.09.88.88,0,0,1,.11-.81,2.08,2.08,0,0,1,.67-.47,1.41,1.41,0,0,1,1.7.11,1.82,1.82,0,0,1,.39,1.2,1.56,1.56,0,0,1-.33,1,2,2,0,0,1-.71.51l-.08,0-.06,0-.05,0h-.06l-.12,0c-.08,0-.19.09-.17.19S389,495.54,389.05,495.52Z"></path></g><g id="BLUE_ACCENTS" data-name="BLUE ACCENTS"><path class="cls-2" d="M427.33,509.52l7.84-6.74,9.05,19.12S431,513.39,427.33,509.52Z"></path><path class="cls-2" d="M420.8,514.47l-9.25,6.8s8.6,14.51,19.17,21.94C430.72,543.21,423.61,528.51,420.8,514.47Z"></path><path class="cls-2" d="M184.92,464.47H185c.47.07.23-.39.14-.62-.16-.38-.35-.75-.51-1.13-.33-.83-.68-1.66-1-2.48-.94-2.14-1.94-4.25-3-6.31a48.88,48.88,0,0,0-3.93-6.37,15.54,15.54,0,0,0-4.42-4.32,5.31,5.31,0,0,0-2.93-.75,2.37,2.37,0,0,0-2.34,1.55c-.29,1.32.84,2.8,1.54,3.82a33.29,33.29,0,0,0,2.27,2.9c1.88,2.2,3.92,4.27,6,6.29,1.88,1.83,3.81,3.61,5.78,5.36.61.55,1.23,1.09,1.81,1.67A1.33,1.33,0,0,0,184.92,464.47Z"></path><path class="cls-2" d="M156.56,509.52l-7.83-6.74-9,19.12S152.92,513.39,156.56,509.52Z"></path><path class="cls-2" d="M163.1,514.47l9.24,6.8s-8.59,14.51-19.16,21.94C153.18,543.21,160.29,528.51,163.1,514.47Z"></path><path class="cls-2" d="M398.05,464.47H398c-.47.07-.23-.39-.13-.62.15-.38.34-.75.5-1.13.33-.83.68-1.66,1-2.48.94-2.14,1.94-4.25,3-6.31a48.88,48.88,0,0,1,3.93-6.37,15.54,15.54,0,0,1,4.42-4.32,5.31,5.31,0,0,1,2.93-.75,2.37,2.37,0,0,1,2.34,1.55c.29,1.32-.84,2.8-1.54,3.82a33.29,33.29,0,0,1-2.27,2.9c-1.88,2.2-3.92,4.27-6,6.29-1.89,1.83-3.82,3.61-5.79,5.36-.61.55-1.23,1.09-1.81,1.67A1.33,1.33,0,0,1,398.05,464.47Z"></path></g></svg>