<svg xmlns="http://www.w3.org/2000/svg" fill="none" viewBox="0 0 211 55" height="55" width="211">
<g clip-path="url(#clip0_7798_3924)">
<path fill="#00CCB6" d="M45.1113 12.826C45.0892 12.8112 45.0598 12.7928 45.0303 12.7781L39.3808 9.51724C39.2042 10.1871 38.9465 11.1514 38.9355 11.1808C37.7578 15.4906 33.8197 18.6558 29.1455 18.6558H15.9695C14.6556 18.6558 13.3711 19.7084 13.2459 21.015C13.0914 22.5755 14.3206 23.8931 15.8517 23.8931H29.4988C34.9937 23.8931 39.6826 28.1587 39.8887 33.65C40.1059 39.4283 35.4759 44.1945 29.7454 44.1945H18.4575C15.9032 44.1945 13.8385 46.2592 13.8385 48.8061V49.141L22.1158 53.9219C22.1158 53.9219 22.1232 53.9256 22.1269 53.9256L23.5475 54.75L25.0712 53.8667C25.0712 53.8667 25.086 53.863 25.0933 53.8593L45.4757 42.0929C45.4757 42.0929 45.483 42.0892 45.4867 42.0856L47.0914 41.1581V13.9706L45.1076 12.826H45.1113ZM33.5584 34.3051C33.4295 35.608 32.1451 36.6643 30.8348 36.6643H17.6588C12.9773 36.6643 9.04287 39.8331 7.86881 44.1356C7.86144 44.1577 7.76207 44.8643 7.65534 45.582L1.40225 41.9715L0 41.1618V13.9706L1.54579 13.0799C1.54579 13.0799 1.55683 13.0726 1.56419 13.0689L21.9024 1.32088L23.5438 0.375L25.4577 1.47914L32.9658 5.81103V6.50663C32.9658 9.05719 30.9011 11.1219 28.3505 11.1219H17.0552C11.3284 11.1219 6.69474 15.8918 6.91189 21.6627C7.12167 27.154 11.8069 31.4196 17.3055 31.4196H30.9526C32.48 31.4196 33.7093 32.7409 33.5584 34.2977"></path>
<path fill="#00CCB6" d="M62.4757 20.4297C62.4757 19.3845 63.37 18.549 65.847 18.549C67.6651 18.549 69.6342 19.0863 71.6326 20.161L73.4508 15.7776C71.3934 14.5851 68.5889 13.9595 65.8727 13.9595C59.6675 13.9595 56.6274 17.0032 56.6274 20.7315C56.6274 28.4862 68.4969 26.0718 68.4969 29.3806C68.4969 30.3927 67.5437 31.0809 65.0962 31.0809C62.6487 31.0809 60.0539 30.2455 58.2063 29.0236L56.2668 33.3775C58.2358 34.7503 61.6365 35.6741 65.0667 35.6741C71.272 35.6741 74.312 32.5715 74.312 28.9316C74.312 21.2357 62.472 23.6207 62.472 20.4297"></path>
<path fill="#00CCB6" d="M87.6132 31.9533L87.6463 31.968L83.8701 41.1323H78.3752L80.6608 35.5785C80.6645 35.538 80.6755 35.4976 80.6939 35.4644L73.7747 19.0864H79.5935L83.5573 28.9611L87.5543 19.0864H92.9535L87.6132 31.9533Z"></path>
<path fill="#00CCB6" d="M115.106 18.8215C112.78 18.8215 110.782 19.7453 109.497 21.3574C108.364 19.6276 106.483 18.8215 104.278 18.8215C102.368 18.8215 100.668 19.4767 99.4458 20.7906V19.0902H94.0466V35.2584H99.7145V27.235C99.7145 24.7287 100.907 23.6245 102.578 23.6245C104.098 23.6245 105.025 24.6072 105.025 26.9369V35.2584H110.693V27.235C110.693 24.7287 111.886 23.6245 113.527 23.6245C115.018 23.6245 115.975 24.6072 115.975 26.9369V35.2584H121.643V26.0131C121.643 21.0004 118.868 18.8252 115.11 18.8252"></path>
<path fill="#00CCB6" d="M133.744 31.0186C131.834 31.0186 130.343 29.6163 130.343 27.1688C130.343 24.7213 131.834 23.3227 133.744 23.3227C135.654 23.3227 137.145 24.725 137.145 27.1688C137.145 29.6126 135.654 31.0186 133.744 31.0186ZM134.936 18.8215C132.82 18.8215 131.238 19.4178 130.163 20.7022V19.0902H124.764V41.0441H130.432V33.8267C131.536 34.9603 133.056 35.5271 134.936 35.5271C139.32 35.5271 142.871 32.3067 142.871 27.1762C142.871 22.0456 139.324 18.8252 134.936 18.8252"></path>
<path fill="#00CCB6" d="M150.523 21.0261V19.0865H145.124V35.2548H150.792V27.8276C150.792 24.9937 152.374 23.8306 154.671 23.8306C155.087 23.8306 155.448 23.8601 155.952 23.919V18.8179C153.567 18.8179 151.686 19.565 150.523 21.0261Z"></path>
<path fill="#00CCB6" d="M165.852 31.0186C163.942 31.0186 162.451 29.6163 162.451 27.1394C162.451 24.6624 163.942 23.3227 165.852 23.3227C167.762 23.3227 169.253 24.6955 169.253 27.1394C169.253 29.5832 167.792 31.0186 165.852 31.0186ZM165.852 18.8215C160.571 18.8215 156.725 22.2812 156.725 27.143C156.725 32.0049 160.571 35.5234 165.852 35.5234C171.134 35.5234 174.98 32.0344 174.98 27.143C174.98 22.2517 171.193 18.8215 165.852 18.8215Z"></path>
<path fill="#00CCB6" d="M188.163 19.0903L184.078 28.9613L180.199 19.0903H174.383L181.034 35.2549H186.882L193.562 19.0903H188.163Z"></path>
<path fill="#00CCB6" d="M198.542 25.6193C198.87 23.919 200.091 22.8443 201.854 22.8443C203.617 22.8443 204.865 23.919 205.167 25.6193H198.546H198.542ZM210.474 27.2019C210.474 21.8616 206.598 18.8215 201.825 18.8215C196.724 18.8215 192.937 22.2812 192.937 27.143C192.937 32.0049 196.665 35.5234 202.421 35.5234C205.494 35.5234 207.762 34.6291 209.311 32.8993L206.326 29.7966C205.222 30.7499 204.18 31.1989 202.598 31.1989C200.511 31.1989 199.109 30.2457 198.63 28.6042H210.382C210.411 28.1552 210.47 27.6178 210.47 27.2019"></path>
</g>
<defs>
<clipPath id="clip0_7798_3924">
<rect transform="translate(0 0.375)" fill="white" height="54.375" width="210.474"></rect>
</clipPath>
</defs>
</svg>
